<?xml version="1.0" encoding="UTF-8"?>
<!-- Generator: Blender, SVG Export for Grease Pencil - v1.0 -->
<!DOCTYPE svg PUBLIC "-//W3C//DTD SVG 1.1//EN" "http://www.w3.org/Graphics/SVG/1.1/DTD/svg11.dtd">
<svg version="1.0" x="0px" y="0px" xmlns="http://www.w3.org/2000/svg" width="50px" height="40px" viewBox="0 0 50 40">
	<g id="blender_frame_1">
		<g id="blender_object_GPencil">
			<!--Layer: GP_Layer-->
			<g id="GP_Layer">
				<polygon fill="#FFBD97" stroke="none" fill-opacity="1" points="18.667339,5.662846 18.483116,5.662846 18.298891,5.662846 18.114668,5.662846 17.930443,5.662846 17.746220,5.662846 17.561996,5.662846 17.377769,5.662846 17.193546,5.662846 17.009323,5.662846 16.825098,5.662846 16.640873,5.662846 16.456648,5.662846 16.456648,6.414230 16.456648,7.165619 16.456648,7.917007 16.456648,8.668394 16.456648,9.419781 16.456648,10.171165 16.456648,10.922550 16.456648,11.673939 16.456648,12.425325 16.456648,13.176712 16.456648,13.928099 16.456648,14.679487 16.237091,14.564541 16.024954,14.461628 15.819367,14.370356 15.619474,14.290337 15.424413,14.221189 15.233317,14.162519 15.045327,14.113941 14.859578,14.075066 14.675212,14.045504 14.491362,14.024868 14.307165,14.012774 14.121762,14.008827 13.328732,14.079809 12.579775,14.287926 11.879633,14.625927 11.233051,15.086575 10.644773,15.662621 10.119542,16.346819 9.662101,17.131929 9.277193,18.010704 8.969563,18.975897 8.743956,20.020267 8.605112,21.136566 8.557775,22.317547 8.600757,23.616907 8.727741,24.829071 8.935799,25.949120 9.221996,26.972143 9.583402,27.893221 10.017082,28.707439 10.520105,29.409882 11.089540,29.995628 11.722450,30.459766 12.415907,30.797382 13.166978,31.003557 13.972727,31.073376 14.363945,31.073376 14.755161,31.073376 15.146379,31.073376 15.537596,31.073376 15.928814,31.073376 16.320032,31.073376 16.711250,31.073376 17.102468,31.073376 17.493685,31.073376 17.884901,31.073376 18.276119,31.073376 18.667339,31.073376 18.667339,28.955832 18.667339,26.838287 18.667339,24.720743 18.667339,22.603199 18.667339,20.485655 18.667339,18.368111 18.667339,16.250568 18.667339,14.133022 18.667339,12.015476 18.667339,9.897934 18.667339,7.780388 18.667339,5.768723" />
				<polygon fill="#FFBD97" stroke="none" fill-opacity="1" points="16.456648,28.278963 16.270355,28.278963 16.084061,28.278963 15.897767,28.278963 15.711473,28.278963 15.525179,28.278963 15.338886,28.278963 15.152592,28.278963 14.966297,28.278963 14.780003,28.278963 14.593708,28.278963 14.407414,28.278963 14.221118,28.278963 13.616711,28.230967 13.080698,28.090599 12.610062,27.863295 12.201781,27.554485 11.852839,27.169609 11.560215,26.714092 11.320893,26.193375 11.131853,25.612886 10.990077,24.978064 10.892545,24.294338 10.836241,23.567144 10.818145,22.801912 10.847727,21.951817 10.934751,21.155279 11.076628,20.416183 11.270770,19.738409 11.514590,19.125839 11.805505,18.582348 12.140921,18.111828 12.518252,17.718151 12.934912,17.405203 13.388315,17.176865 13.875871,17.037012 14.394993,16.989534 14.577866,16.993458 14.754701,17.005404 14.926708,17.025627 15.095091,17.054394 15.261060,17.091953 15.425820,17.138569 15.590581,17.194500 15.756551,17.260006 15.924933,17.335342 16.096941,17.420771 16.273775,17.516548 16.456648,17.622932 16.456648,18.510937 16.456648,19.398939 16.456648,20.286942 16.456648,21.174944 16.456648,22.062946 16.456648,22.950949 16.456648,23.838951 16.456648,24.726954 16.456648,25.614956 16.456648,26.502956 16.456648,27.390961 16.456648,28.234562" />
				<polygon fill="#FFBD97" stroke="none" fill-opacity="1" points="7.464849,34.799263 21.374815,34.799263 21.374815,32.936317 7.464849,32.936317" />
				<polygon fill="#FFBD97" stroke="none" fill-opacity="1" points="28.776905,5.327515 28.689968,5.327515 28.603029,5.327515 28.516092,5.327515 28.429157,5.327515 28.342220,5.327515 28.255281,5.327515 28.168344,5.327515 28.081408,5.327515 27.994469,5.327515 27.907532,5.327515 27.820597,5.327515 27.733656,5.327515 27.019531,6.637787 26.305401,7.948055 25.591274,9.258327 24.877146,10.568596 24.163017,11.878864 23.448891,13.189135 22.734762,14.499401 22.020636,15.809671 21.306509,17.119942 20.592381,18.430210 19.878252,19.740479 19.164124,21.050747 19.164124,21.190468 19.164124,21.330189 19.164124,21.469910 19.164124,21.609631 19.164124,21.749352 19.164124,21.889072 19.164124,22.028791 19.164124,22.168512 19.164124,22.308233 19.164124,22.447954 19.164124,22.587675 19.164124,22.727396 19.762335,22.727396 20.360548,22.727396 20.958759,22.727396 21.556971,22.727396 22.155180,22.727396 22.753393,22.727396 23.351604,22.727396 23.949816,22.727396 24.548027,22.727396 25.146240,22.727396 25.744450,22.727396 26.342661,22.727396 26.342661,23.422894 26.342661,24.118393 26.342661,24.813892 26.342661,25.509390 26.342661,26.204889 26.342661,26.900387 26.342661,27.595884 26.342661,28.291384 26.342661,28.986881 26.342661,29.682381 26.342661,30.377878 26.342661,31.073376 26.545515,31.073376 26.748367,31.073376 26.951223,31.073376 27.154076,31.073376 27.356928,31.073376 27.559784,31.073376 27.762636,31.073376 27.965492,31.073376 28.168344,31.073376 28.371197,31.073376 28.574053,31.073376 28.776905,31.073376 28.776905,30.377876 28.776905,29.682379 28.776905,28.986881 28.776905,28.291382 28.776905,27.595884 28.776905,26.900387 28.776905,26.204887 28.776905,25.509388 28.776905,24.813890 28.776905,24.118391 28.776905,23.422894 28.776905,22.727396 28.928011,22.727396 29.079115,22.727396 29.230223,22.727396 29.381329,22.727396 29.532433,22.727396 29.683537,22.727396 29.834642,22.727396 29.985750,22.727396 30.136854,22.727396 30.287960,22.727396 30.439068,22.727396 30.590168,22.727396 30.590168,22.454165 30.590168,22.180933 30.590168,21.907701 30.590168,21.634470 30.590168,21.361238 30.590168,21.088007 30.590168,20.814775 30.590168,20.541544 30.590168,20.268312 30.590168,19.995081 30.590168,19.721849 30.590168,19.448620 30.439064,19.448620 30.287956,19.448620 30.136854,19.448620 29.985746,19.448620 29.834641,19.448620 29.683537,19.448620 29.532429,19.448620 29.381327,19.448620 29.230219,19.448620 29.079115,19.448620 28.928009,19.448620 28.776905,19.448620 28.776905,18.271858 28.776905,17.095100 28.776905,15.918343 28.776905,14.741583 28.776905,13.564825 28.776905,12.388067 28.776905,11.211309 28.776905,10.034550 28.776905,8.857792 28.776905,7.681034 28.776905,6.504272 28.776905,5.386353" />
				<polygon fill="#FFBD97" stroke="none" fill-opacity="1" points="26.292982,12.220402 26.297123,12.220402 26.301262,12.220402 26.305401,12.220402 26.309542,12.220402 26.313681,12.220402 26.317823,12.220402 26.321962,12.220402 26.326101,12.220402 26.330242,12.220402 26.334381,12.220402 26.338520,12.220402 26.342661,12.220402 26.342661,12.822754 26.342661,13.425104 26.342661,14.027458 26.342661,14.629807 26.342661,15.232161 26.342661,15.834511 26.342661,16.436863 26.342661,17.039213 26.342661,17.641565 26.342661,18.243916 26.342661,18.846268 26.342661,19.448620 26.015610,19.448620 25.688562,19.448620 25.361511,19.448620 25.034460,19.448620 24.707411,19.448620 24.380362,19.448620 24.053310,19.448620 23.726263,19.448620 23.399214,19.448620 23.072163,19.448620 22.745113,19.448620 22.418064,19.448620 22.740974,18.846266 23.063883,18.243916 23.386793,17.641563 23.709702,17.039213 24.032612,16.436861 24.355522,15.834511 24.678432,15.232159 25.001341,14.629807 25.324253,14.027458 25.647163,13.425104 25.970072,12.822752 26.276836,12.250519" />
				<polygon fill="#FFBD97" stroke="none" fill-opacity="1" points="18.890894,34.799263 32.552467,34.799263 32.552467,32.936317 18.890894,32.936317" />
				<polygon fill="#FFBD97" stroke="none" fill-opacity="1" points="32.080521,9.873096 32.364906,9.687471 32.635494,9.521379 32.894005,9.374178 33.142166,9.245214 33.381706,9.133850 33.614342,9.039431 33.841808,8.961311 34.065819,8.898848 34.288109,8.851391 34.510395,8.818293 34.734409,8.798906 34.961872,8.792587 35.395233,8.822538 35.799965,8.911093 36.174335,9.056313 36.516621,9.256256 36.825100,9.508982 37.098045,9.812550 37.333729,10.165022 37.530430,10.564453 37.686424,11.008909 37.799980,11.496445 37.869381,12.025118 37.892902,12.592991 37.869614,13.150841 37.799751,13.668324 37.683319,14.143890 37.520313,14.575989 37.310730,14.963070 37.054573,15.303572 36.751850,15.595951 36.402546,15.838652 36.006672,16.030119 35.564224,16.168804 35.075199,16.253155 34.539604,16.281616 34.539604,16.561058 34.539604,16.840498 34.539604,17.119942 34.539604,17.399384 34.539604,17.678823 34.539604,17.958263 34.539604,18.237705 34.539604,18.517147 34.539604,18.796589 34.539604,19.076031 34.539604,19.355471 34.539604,19.634912 35.117104,19.631680 35.644836,19.711498 36.122715,19.868944 36.550663,20.098577 36.928581,20.394966 37.256397,20.752676 37.534012,21.166275 37.761341,21.630329 37.938309,22.139404 38.064819,22.688066 38.140789,23.270884 38.166134,23.882420 38.144154,24.478907 38.079308,25.037098 37.973244,25.554409 37.827579,26.028252 37.643974,26.456039 37.424057,26.835182 37.169472,27.163095 36.881851,27.437189 36.562836,27.654877 36.214066,27.813572 35.837181,27.910686 35.433815,27.943632 35.123299,27.930416 34.812607,27.890678 34.501572,27.824287 34.190018,27.731119 33.877773,27.611042 33.564667,27.463924 33.250523,27.289640 32.935177,27.088058 32.618446,26.859051 32.300167,26.602488 31.980160,26.318237 31.658257,26.006174 31.658257,26.335295 31.658257,26.664413 31.658257,26.993534 31.658257,27.322653 31.658257,27.651772 31.658257,27.980892 31.658257,28.310013 31.658257,28.639132 31.658257,28.968250 31.658257,29.297371 31.658257,29.626492 31.658257,29.955612 31.962507,30.179874 32.266586,30.386675 32.570320,30.575621 32.873535,30.746326 33.176064,30.898403 33.477730,31.031460 33.778358,31.145115 34.077778,31.238972 34.375824,31.312651 34.672310,31.365757 34.967075,31.397903 35.259941,31.408707 36.022484,31.343761 36.742245,31.153069 37.414745,30.842838 38.035496,30.419277 38.600014,29.888596 39.103813,29.257010 39.542408,28.530720 39.911316,27.715940 40.206051,26.818884 40.422131,25.845755 40.555065,24.802765 40.600376,23.696125 40.584736,23.044418 40.537357,22.397758 40.457554,21.762741 40.344627,21.145966 40.197887,20.554028 40.016651,19.993530 39.800228,19.471064 39.547928,18.993233 39.259060,18.566631 38.932926,18.197859 38.568848,17.893515 38.166134,17.660194 38.532169,17.335989 38.860939,16.994709 39.153492,16.633247 39.410854,16.248497 39.634060,15.837357 39.824150,15.396719 39.982155,14.923479 40.109108,14.414536 40.206055,13.866779 40.274017,13.277107 40.314034,12.642412 40.327145,11.959591 40.286781,10.983789 40.167763,10.071121 39.973186,9.225723 39.706165,8.451740 39.369797,7.753311 38.967197,7.134571 38.501461,6.599663 37.975700,6.152733 37.393009,5.797913 36.756504,5.539341 36.069286,5.381165 35.334457,5.327515 35.023766,5.334545 34.724289,5.355804 34.434814,5.391556 34.154137,5.442051 33.881050,5.507557 33.614342,5.588326 33.352814,5.684624 33.095249,5.796700 32.840450,5.924820 32.587196,6.069241 32.334290,6.230225 32.080521,6.408024 32.080521,6.696777 32.080521,6.985535 32.080521,7.274292 32.080521,7.563049 32.080521,7.851807 32.080521,8.140560 32.080521,8.429316 32.080521,8.718071 32.080521,9.006828 32.080521,9.295582 32.080521,9.584341 32.080521,9.858658" />
				<polygon fill="#FFBD97" stroke="none" fill-opacity="1" points="30.068544,34.799263 42.488159,34.799263 42.488159,32.936317 30.068544,32.936317" />
			</g>
		</g>
	</g>
</svg>
