<?xml version="1.0" encoding="UTF-8"?>
<!-- Generator: Blender, SVG Export for Grease Pencil - v1.0 -->
<!DOCTYPE svg PUBLIC "-//W3C//DTD SVG 1.1//EN" "http://www.w3.org/Graphics/SVG/1.1/DTD/svg11.dtd">
<svg version="1.0" x="0px" y="0px" xmlns="http://www.w3.org/2000/svg" width="459px" height="956px" viewBox="0 0 459 956">
	<g id="blender_frame_186">
		<g id="blender_object_GPencil">
			<!--Layer: GP_Layer-->
			<g id="GP_Layer">
				<polygon stroke="#CBCBCB" stroke-opacity="1" fill="none" stroke-linecap="round" stroke-width="2" points="191.816650,939.267700 191.761353,938.200317 191.604858,936.806885 191.361694,935.124878 191.045654,933.192017 190.671509,931.045654 190.253418,928.723267 189.805298,926.262573 189.341675,923.701050 188.876953,921.076294 188.425049,918.425659 188.000610,915.786865 187.617554,913.197388 187.330322,911.124390 187.067261,909.181274 186.824951,907.341919 186.599854,905.580200 186.388428,903.869995 186.187012,902.185181 185.991943,900.499634 185.799927,898.786987 185.607178,897.021362 185.410278,895.176514 185.205444,893.226318 184.989502,891.144775 184.789917,889.200317 184.606445,887.378174 184.437134,885.653809 184.279297,884.002563 184.131104,882.399902 183.990234,880.821411 183.854492,879.242554 183.721924,877.638550 183.589966,875.984985 183.456543,874.257446 183.319580,872.431274 183.176880,870.481812 183.046021,868.644531 182.928223,866.922729 182.821655,865.293457 182.724365,863.733398 182.634644,862.219482 182.550293,860.728394 182.469849,859.237183 182.391357,857.722534 182.312866,856.161377 182.232422,854.530518 182.148560,852.806763 182.059082,850.966919 181.976685,849.265137 181.900269,847.670776 181.829346,846.162109 181.763306,844.717896 181.701660,843.316528 181.643433,841.936401 181.588257,840.556274 181.535400,839.154541 181.484131,837.709595 181.433960,836.200317 181.384155,834.604858 181.334106,832.901855 181.281616,831.060547 181.233154,829.335205 181.189087,827.702881 181.149292,826.140015 181.113892,824.623657 181.083130,823.130493 181.057007,821.637207 181.035767,820.120605 181.019653,818.557495 181.008423,816.924683 181.002441,815.198853 181.001709,813.356689 181.003418,811.428955 181.005249,809.622681 181.008789,807.913574 181.015747,806.277466 181.027832,804.690063 181.046631,803.126953 181.073853,801.564087 181.111328,799.977417 181.160400,798.342285 181.222656,796.634766 181.300293,794.830444 181.394531,792.905273 181.480957,791.350708 181.573364,789.895020 181.671631,788.518555 181.775513,787.201538 181.884766,785.924194 181.999268,784.666870 182.118774,783.410034 182.243042,782.133789 182.371948,780.818481 182.505371,779.444458 182.642700,777.991943 182.784180,776.441284 182.947510,774.563965 183.093994,772.804443 183.228027,771.139038 183.354614,769.544556 183.478271,767.997559 183.603638,766.474609 183.735596,764.952515 183.878784,763.407593 184.037842,761.816650 184.217407,760.156372 184.422241,758.403076 184.657104,756.533569 184.868774,754.949097 185.078491,753.466187 185.287720,752.064697 185.498291,750.724487 185.712036,749.425659 185.930420,748.147827 186.155396,746.871094 186.388428,745.575195 186.631348,744.239990 186.885742,742.845459 187.153564,741.371460 187.436279,739.797852 187.668701,738.496948 187.887573,737.278198 188.096069,736.125366 188.297607,735.022217 188.495728,733.952271 188.693481,732.899292 188.894531,731.846802 189.102051,730.778687 189.319458,729.678589 189.550049,728.530029 189.797241,727.316772 190.064453,726.022583 190.339722,724.699951 190.598999,723.461060 190.846313,722.289307 191.085938,721.168213 191.321777,720.081177 191.557861,719.011597 191.798218,717.942993 192.046997,716.858765 192.308228,715.742676 192.585693,714.577759 192.883667,713.347656 193.206299,712.035767 193.447754,711.062622 193.675781,710.151123 193.893799,709.289429 194.105347,708.465027 194.313965,707.666077 194.523071,706.880371 194.736084,706.095825 194.956787,705.300171 195.188477,704.481323 195.434814,703.627319 195.699341,702.725830 195.985474,701.764771 196.397583,700.395874 196.787720,699.114441 197.161621,697.903442 197.525024,696.745850 197.883423,695.624390 198.242432,694.522217 198.607788,693.422119 198.985229,692.307007 199.380249,691.159790 199.798706,689.963501 200.246216,688.700989 200.728271,687.355042 201.333496,685.678894 201.904907,684.109863 202.451172,682.627258 202.980469,681.210388 203.501221,679.838257 204.021973,678.490173 204.551147,677.145447 205.096924,675.783142 205.667847,674.382629 206.272339,672.922974 206.919067,671.383423 207.615967,669.743286 208.183105,668.419067 208.718140,667.179688 209.229004,666.008972 209.723389,664.890625 210.209595,663.808350 210.695435,662.745911 211.188965,661.687073 211.697998,660.615479 212.230835,659.515015 212.795166,658.369385 213.399048,657.162231 214.050415,655.877380 215.252319,653.526306 216.420166,651.257568 217.564575,649.056641 218.695557,646.909241 219.824097,644.800842 220.960205,642.717224 222.114258,640.643860 223.296875,638.566406 224.518433,636.470459 225.789307,634.341675 227.119751,632.165588 228.520508,629.927856 229.583130,628.270020 230.596924,626.728821 231.573853,625.282349 232.525635,623.908752 233.464233,622.586182 234.401489,621.292786 235.349487,620.006653 236.319824,618.705933 237.324707,617.368835 238.375854,615.973389 239.485107,614.497803 240.664429,612.920166 241.375977,611.962463 242.041260,611.063782 242.670654,610.213257 243.274414,609.399963 243.863159,608.612915 244.447021,607.841248 245.036377,607.073975 245.641602,606.300232 246.273071,605.508972 246.941040,604.689331 247.656006,603.830322 248.428223,602.921021 249.455933,601.727661 250.425293,600.614624 251.349976,599.567688 252.243164,598.572632 253.119141,597.615356 253.991089,596.681519 254.873047,595.757019 255.778320,594.827637 256.720703,593.879089 257.713989,592.897278 258.771729,591.868042 259.907593,590.777039 260.952637,589.781067 261.935425,588.850769 262.870361,587.975342 263.771851,587.143921 264.654419,586.345703 265.532227,585.569885 266.419800,584.805603 267.331543,584.041992 268.281860,583.268250 269.285156,582.473511 270.355591,581.647034 271.507935,580.777893 272.848145,579.791077 274.116577,578.884094 275.329224,578.043457 276.501831,577.255554 277.650635,576.507019 278.791626,575.784180 279.940674,575.073669 281.114136,574.361816 282.327759,573.635254 283.597778,572.880432 284.939941,572.083801 286.370728,571.231873 288.048340,570.224854 289.618530,569.276123 291.104492,568.377380 292.529419,567.520325 293.916626,566.696716 295.289551,565.898254 296.671143,565.116638 298.084839,564.343689 299.553955,563.570984 301.101685,562.790405 302.751465,561.993591 304.526123,561.172241 306.180298,560.441101 307.742554,559.786377 309.232178,559.195496 310.669067,558.655884 312.072144,558.154907 313.461304,557.680176 314.855835,557.218994 316.275269,556.758789 317.739136,556.287109 319.266724,555.791382 320.877563,555.258972 322.591187,554.677307 324.179810,554.124939 325.666260,553.600281 327.071655,553.099731 328.416748,552.619751 329.722900,552.156677 331.010986,551.706970 332.302124,551.267029 333.617188,550.833313 334.977295,550.402222 336.403564,549.970154 337.916992,549.533447 339.538452,549.088684 340.964355,548.716614 342.304688,548.385193 343.576660,548.088196 344.797974,547.819153 345.986328,547.571777 347.159058,547.339783 348.333984,547.116882 349.528564,546.896667 350.760254,546.672913 352.046753,546.439148 353.405640,546.189209 354.854248,545.916748 356.531616,545.595337 358.103271,545.292358 359.590088,545.005615 361.014038,544.732971 362.396240,544.472290 363.758423,544.221497 365.121704,543.978455 366.507690,543.741089 367.937866,543.507141 369.433716,543.274658 371.016479,543.041382 372.707886,542.805237 374.414551,542.575134 376.014648,542.364502 377.529541,542.171936 378.981079,541.996033 380.390625,541.835327 381.779785,541.688599 383.169922,541.554443 384.583130,541.431396 386.040283,541.318054 387.563477,541.213135 389.174072,541.115234 390.893677,541.022888 392.648071,540.940979 394.292603,540.877869 395.848999,540.832031 397.339355,540.802185 398.786011,540.786682 400.210449,540.784241 401.635254,540.793396 403.082153,540.812683 404.573242,540.840637 406.130737,540.875916 407.776367,540.916992 409.532593,540.962463 411.185303,541.012329 412.733154,541.072205 414.197266,541.140686 415.598389,541.216553 416.957275,541.298401 418.295410,541.385010 419.633301,541.474976 420.991943,541.567017 422.392456,541.659729 423.855591,541.751892 425.402466,541.842163 427.053711,541.929138 428.864136,541.982178 430.570923,541.969360 432.193115,541.911438 433.750366,541.829163 435.262329,541.743103 436.748169,541.674072 438.227417,541.642639 439.719604,541.669617 441.244141,541.775635 442.820435,541.981384 444.467896,542.307617 446.206177,542.775024 446.587158,542.884155 446.967407,542.984497 447.342163,543.082336 447.706421,543.184082 448.055786,543.295837 448.385254,543.424072 448.690308,543.574951 448.966064,543.754822 449.207642,543.969910 449.410400,544.226562 449.569458,544.531067 449.680298,544.889648 449.761597,545.564209 449.705811,546.172119 449.530273,546.724731 449.253052,547.233337 448.891846,547.709351 448.464844,548.164124 447.989380,548.608948 447.483521,549.055298 446.964966,549.514465 446.451538,549.997803 445.960938,550.516663 445.511353,551.082458 445.008667,551.784851 444.535645,552.441650 444.085938,553.061340 443.652588,553.652588 443.229126,554.224121 442.808716,554.784363 442.385010,555.342041 441.951172,555.905762 441.500732,556.484070 441.026978,557.085632 440.523438,557.719116 439.983154,558.393066 439.319946,559.220337 438.699829,559.997070 438.112915,560.732300 437.549072,561.434875 436.998535,562.113525 436.450928,562.777283 435.896729,563.434937 435.325562,564.095337 434.727539,564.767395 434.092773,565.459961 433.411011,566.181946 432.672607,566.942200 431.803589,567.806763 430.973145,568.599487 430.172729,569.333862 429.393921,570.023499 428.627930,570.681824 427.866455,571.322510 427.100952,571.958862 426.322998,572.604675 425.523804,573.273315 424.695190,573.978333 423.828491,574.733337 422.915039,575.551697 421.802124,576.566956 420.762085,577.520996 419.780762,578.426636 418.843994,579.296570 417.937622,580.143311 417.047485,580.979614 416.159668,581.818176 415.259399,582.671570 414.333008,583.552490 413.366211,584.473633 412.344727,585.447754 411.254395,586.487305 410.245239,587.462585 409.310791,588.388550 408.435181,589.273926 407.602539,590.127380 406.796631,590.957581 406.001465,591.773315 405.201050,592.583130 404.379395,593.395874 403.520508,594.220093 402.608398,595.064575 401.627075,595.937988 400.560425,596.849060 399.546875,597.687561 398.587402,598.461426 397.669800,599.181335 396.781372,599.858093 395.909790,600.502380 395.042480,601.125000 394.167114,601.736633 393.271240,602.347961 392.342041,602.969788 391.367676,603.612854 390.335083,604.287781 389.232178,605.005493 388.032349,605.779297 386.902588,606.495544 385.827881,607.163940 384.792969,607.794312 383.783081,608.396606 382.783203,608.980591 381.778076,609.555908 380.753052,610.132568 379.692749,610.720337 378.582520,611.329041 377.407104,611.968445 376.151611,612.648315 374.760010,613.399170 373.453857,614.099182 372.215332,614.756531 371.026367,615.379761 369.868896,615.977112 368.725098,616.557129 367.576904,617.128052 366.406128,617.698303 365.194824,618.276306 363.924927,618.870300 362.578613,619.488831 361.137817,620.140198 359.748047,620.767639 358.446289,621.359863 357.213745,621.920593 356.031616,622.453430 354.880981,622.962036 353.743042,623.450012 352.598755,623.921204 351.429443,624.379089 350.216187,624.827454 348.940063,625.269897 347.582153,625.710083 346.124023,626.151733 344.620972,626.576355 343.205444,626.945801 341.859009,627.267639 340.563721,627.549438 339.300903,627.798645 338.052490,628.022827 336.800293,628.229553 335.525757,628.426147 334.211060,628.620361 332.837524,628.819580 331.386963,629.031372 329.841309,629.263245 328.215210,629.513733 326.690796,629.750244 325.247681,629.972290 323.865112,630.179504 322.522339,630.371582 321.198730,630.548035 319.873657,630.708496 318.526367,630.852600 317.136230,630.979858 315.682373,631.089966 314.144409,631.182495 312.501343,631.257080 310.838257,631.313110 309.279175,631.349121 307.803223,631.364990 306.389893,631.360596 305.018555,631.335938 303.668335,631.291016 302.318970,631.225708 300.949707,631.140015 299.539673,631.033875 298.068237,630.907288 296.515015,630.760132 294.859375,630.592468 293.296875,630.424805 291.833618,630.256104 290.450562,630.082825 289.128174,629.901855 287.847168,629.709900 286.588623,629.503601 285.332886,629.279846 284.060913,629.035217 282.753540,628.766479 281.391357,628.470398 279.955200,628.143677 278.425659,627.783020 277.154541,627.472961 275.966187,627.170776 274.844849,626.872314 273.774902,626.573425 272.740356,626.270081 271.725464,625.958008 270.714355,625.633362 269.691284,625.291748 268.640625,624.929199 267.546387,624.541565 266.392822,624.124695 265.163940,623.674622 263.712646,623.140808 262.352051,622.638916 261.065674,622.159241 259.836914,621.691833 258.649292,621.226807 257.485840,620.754272 256.330322,620.264465 255.166138,619.747375 253.976685,619.193237 252.745117,618.592285 251.454956,617.934387 250.089722,617.209900 248.825928,616.515686 247.651611,615.847412 246.551025,615.196655 245.507935,614.555176 244.506836,613.914551 243.531860,613.266418 242.567017,612.602417 241.596558,611.914124 240.604492,611.193237 239.575317,610.431396 238.492798,609.620239 237.341431,608.751343 235.973022,607.722778 234.685303,606.761047 233.466064,605.848816 232.303101,604.968079 231.184326,604.101318 230.097412,603.230896 229.030396,602.338989 227.971069,601.408020 226.907227,600.420349 225.826416,599.358154 224.716919,598.203796 223.566162,596.939636 222.284058,595.467041 221.110229,594.061646 220.030029,592.705322 219.028564,591.380066 218.090820,590.067688 217.201782,588.750000 216.346680,587.409119 215.510376,586.026733 214.678223,584.584778 213.835205,583.065186 212.966309,581.449829 212.056519,579.720581 211.122070,577.888306 210.280396,576.154602 209.518799,574.497437 208.824097,572.894653 208.183350,571.324402 207.583496,569.764526 207.011475,568.192993 206.454102,566.587830 205.898438,564.926941 205.331543,563.188354 204.740356,561.350037 204.111572,559.389893 203.621582,557.838135 203.178101,556.379272 202.774658,554.994019 202.404785,553.663147 202.061401,552.367310 201.738403,551.087097 201.428833,549.803284 201.126221,548.496582 200.823975,547.147644 200.515015,545.737122 200.193481,544.245728 199.852173,542.654175 199.510742,541.103149 199.177368,539.650146 198.854980,538.274963 198.546753,536.957397 198.255615,535.677368 197.984619,534.414551 197.736816,533.148865 197.515137,531.859985 197.322998,530.527771 197.162964,529.132141 197.038330,527.652710 196.952148,526.069397 196.911133,524.563904 196.911743,523.153442 196.950317,521.819153 197.023315,520.542480 197.127319,519.304504 197.258911,518.086548 197.414551,516.869934 197.590698,515.635742 197.784180,514.365356 197.991089,513.039978 198.208374,511.640930 198.432373,510.149292 198.641846,508.732849 198.843384,507.405884 199.041626,506.151062 199.241211,504.951233 199.446533,503.788940 199.661987,502.647156 199.892090,501.508362 200.141724,500.355408 200.415039,499.171021 200.716675,497.937927 201.051147,496.638733 201.423096,495.256348 201.804565,493.897217 202.178711,492.628662 202.549316,491.433411 202.920410,490.294067 203.295776,489.193420 203.679443,488.114075 204.075439,487.038879 204.487549,485.950378 204.919922,484.831421 205.376343,483.664673 205.860840,482.432800 206.377319,481.118530 206.875977,479.849854 207.345947,478.662109 207.795166,477.539795 208.230957,476.467590 208.661011,475.430298 209.092896,474.412537 209.534302,473.398865 209.992554,472.374084 210.475464,471.322876 210.990356,470.229736 211.545166,469.079468 212.147217,467.856750 212.663208,466.821838 213.150146,465.853516 213.616211,464.939514 214.069214,464.067871 214.516846,463.226440 214.967041,462.403015 215.427368,461.585571 215.906006,460.761902 216.410645,459.919861 216.949097,459.047485 217.529175,458.132507 218.158813,457.162842 218.584473,456.518433 218.988037,455.917358 219.375366,455.352173 219.752563,454.815186 220.125366,454.299133 220.499756,453.796265 220.881836,453.299194 221.277222,452.800354 221.692139,452.292358 222.132568,451.767517 222.604248,451.218506 223.113037,450.637695 223.644165,450.046143 224.150879,449.500366 224.638916,448.992065 225.114136,448.513123 225.582275,448.055176 226.049316,447.610046 226.521240,447.169495 227.003418,446.725281 227.502197,446.269165 228.023071,445.792847 228.572021,445.288147 229.154907,444.746948 229.702026,444.182312 230.191040,443.585266 230.637085,442.971741 231.055420,442.357300 231.461304,441.757935 231.869629,441.189392 232.296021,440.667419 232.755249,440.207825 233.262817,439.826477 233.833862,439.539062 234.483398,439.361328 235.226929,439.309265 235.881958,439.377014 236.458130,439.544800 236.966675,439.801453 237.419067,440.136108 237.826050,440.537720 238.199585,440.994995 238.550415,441.497192 238.890015,442.033203 239.229736,442.591858 239.580811,443.162292 239.954590,443.733215 240.362427,444.293823 240.916138,445.029968 241.412231,445.735474 241.859863,446.417786 242.268311,447.084656 242.646606,447.743713 243.004150,448.402710 243.349976,449.069153 243.693237,449.750793 244.043335,450.455261 244.409302,451.190308 244.800537,451.963501 245.226074,452.782532 245.832642,453.939392 246.395020,455.026489 246.920410,456.058472 247.416870,457.049744 247.892090,458.014832 248.353394,458.968384 248.808960,459.924805 249.266357,460.898621 249.733032,461.904419 250.217163,462.956726 250.726074,464.070007 251.267822,465.258789 251.870728,466.586182 252.432983,467.831055 252.961548,469.010559 253.463257,470.141602 253.944946,471.241272 254.413818,472.326477 254.876465,473.414246 255.339722,474.521667 255.811035,475.665649 256.296753,476.863220 256.804077,478.131409 257.339844,479.487244 257.845337,480.752563 258.330688,481.935364 258.796631,483.053101 259.244019,484.123413 259.673340,485.163757 260.085327,486.191711 260.480835,487.224792 260.860352,488.280579 261.224609,489.376526 261.574585,490.530334 261.910645,491.759338 262.233643,493.081238 262.592529,494.714294 262.895142,496.251343 263.147583,497.712402 263.355835,499.117188 263.525513,500.485840 263.662842,501.838074 263.773560,503.193909 263.863647,504.573181 263.939087,505.995850 264.005859,507.481812 264.069824,509.051025 264.136841,510.723267 264.201172,512.368774 264.253906,513.912048 264.292847,515.373352 264.316284,516.772949 264.321655,518.131226 264.307007,519.468323 264.270386,520.804688 264.209717,522.160461 264.122681,523.556030 264.007446,525.011658 263.861816,526.547546 263.683716,528.184082 263.482056,529.849365 263.272339,531.407593 263.052002,532.879333 262.817749,534.284973 262.566650,535.645081 262.295898,536.980225 262.002197,538.310852 261.682983,539.657532 261.334961,541.040710 260.955200,542.480957 260.540894,543.998779 260.088745,545.614685 259.577637,547.376038 259.073608,549.018494 258.572266,550.564819 258.069336,552.037903 257.560669,553.460449 257.041626,554.855347 256.508301,556.245422 255.955933,557.653320 255.380737,559.102173 254.777954,560.614502 254.143433,562.213318 253.473022,563.921265 252.594116,566.142151 251.749512,568.214417 250.932373,570.167725 250.135864,572.031799 249.353271,573.836487 248.577393,575.611511 247.801758,577.386475 247.019287,579.191223 246.223389,581.055603 245.406860,583.009094 244.563110,585.081726 243.685303,587.302979 243.074463,588.877075 242.505371,590.353271 241.971436,591.751770 241.465576,593.092590 240.981079,594.395996 240.511230,595.681946 240.048828,596.970642 239.587524,598.282227 239.119995,599.636780 238.639771,601.054504 238.139771,602.555359 237.613403,604.159607 237.148682,605.586853 236.715332,606.925049 236.308960,608.192505 235.925171,609.407593 235.559570,610.588684 235.207886,611.754089 234.865601,612.922241 234.528320,614.111389 234.191772,615.339905 233.851562,616.626221 233.503174,617.988525 233.142456,619.445374 232.667480,621.411133 232.232422,623.255676 231.832397,625.003784 231.462402,626.680359 231.117798,628.310181 230.793579,629.918274 230.484619,631.529358 230.186768,633.168396 229.894531,634.860229 229.603027,636.629700 229.307861,638.501648 229.003784,640.500977 228.758179,642.143188 228.530396,643.683044 228.320068,645.141296 228.127075,646.538757 227.951416,647.896179 227.792725,649.234375 227.651123,650.573975 227.526245,651.935913 227.417969,653.341003 227.326172,654.809875 227.250610,656.363342 227.191162,658.022217 227.145142,659.666565 227.110229,661.209045 227.089355,662.669617 227.084595,664.068420 227.099121,665.425720 227.134888,666.761475 227.194946,668.095947 227.281616,669.449219 227.397583,670.841370 227.545288,672.292603 227.727417,673.822998 227.946411,675.452759 228.150269,676.841553 228.357178,678.141296 228.571167,679.368896 228.796143,680.540833 229.035767,681.674011 229.294067,682.785034 229.574829,683.890747 229.881958,685.007629 230.219238,686.152588 230.590576,687.342346 230.999756,688.593445 231.450806,689.922852 231.840942,691.027954 232.224243,692.057190 232.604492,693.024292 232.986206,693.943420 233.373291,694.828613 233.770020,695.693848 234.180542,696.553101 234.609009,697.420532 235.059570,698.309937 235.536621,699.235596 236.044189,700.211304 236.586304,701.251221 237.193115,702.429443 237.755249,703.540039 238.285645,704.593872 238.797119,705.601929 239.302490,706.575195 239.814575,707.524658 240.346191,708.461182 240.910034,709.395874 241.519287,710.339478 242.186279,711.303345 242.924194,712.298096 243.745728,713.334839 244.466919,714.192017 245.165894,714.974365 245.850464,715.693848 246.527588,716.362305 247.204834,716.991821 247.889526,717.594238 248.588989,718.181519 249.310669,718.765747 250.061890,719.358765 250.850098,719.972534 251.682617,720.618896 252.566772,721.309937 253.883423,722.338013 255.125122,723.291626 256.309448,724.182617 257.453369,725.022339 258.574097,725.822266 259.689087,726.594116 260.815186,727.349243 261.969971,728.099243 263.170288,728.855713 264.433594,729.630127 265.777222,730.433960 267.218140,731.278931 268.604614,732.072632 269.914062,732.797852 271.162720,733.465698 272.367920,734.087402 273.546143,734.674072 274.713867,735.236938 275.888184,735.787231 277.085938,736.336060 278.323486,736.894653 279.617676,737.474121 280.985474,738.085571 282.443359,738.740601 283.891602,739.396240 285.248047,740.013428 286.531982,740.597290 287.763062,741.152710 288.960449,741.684692 290.143677,742.198364 291.332153,742.698608 292.545166,743.190552 293.802246,743.679077 295.122681,744.169434 296.525757,744.666382 298.031250,745.175049 299.774658,745.735718 301.416138,746.234253 302.976807,746.680298 304.477783,747.083374 305.940308,747.453247 307.385620,747.799438 308.834961,748.131470 310.309326,748.459229 311.830078,748.791992 313.418091,749.139771 315.094971,749.511841 316.881592,749.917847 318.326904,750.252441 319.681152,750.567261 320.962646,750.864746 322.190063,751.147217 323.381836,751.417114 324.556763,751.676636 325.733154,751.928223 326.929688,752.174316 328.164917,752.417114 329.457397,752.659180 330.825562,752.902710 332.288208,753.150269 333.505615,753.344971 334.647827,753.515747 335.730347,753.666382 336.767822,753.800415 337.775879,753.921753 338.769531,754.033813 339.763794,754.140503 340.774170,754.245361 341.815552,754.352173 342.903198,754.464478 344.052368,754.586304 345.278076,754.721069 346.210693,754.831177 347.083984,754.943359 347.909912,755.055542 348.700562,755.165771 349.467651,755.272339 350.223389,755.372925 350.979736,755.466064 351.748413,755.549438 352.541382,755.621338 353.370850,755.679688 354.248535,755.722656 355.186523,755.748169 355.608398,755.774780 356.026978,755.832275 356.439819,755.908691 356.844849,755.991821 357.239258,756.069702 357.620972,756.130005 357.987305,756.160645 358.336060,756.149536 358.664795,756.084717 358.970947,755.953979 359.252319,755.745117 359.506470,755.446167 359.739502,755.017944 359.851685,754.599365 359.859253,754.187622 359.779053,753.779419 359.627197,753.371826 359.420044,752.961792 359.174072,752.546265 358.905762,752.122192 358.631226,751.686646 358.367188,751.236450 358.129883,750.768799 357.935547,750.280396 357.492676,748.941772 357.083862,747.684326 356.699951,746.492920 356.331055,745.352417 355.968262,744.247681 355.601807,743.163208 355.222412,742.083984 354.820557,740.994751 354.386841,739.880249 353.911743,738.725220 353.385986,737.514648 352.800049,736.233154 352.107666,734.784424 351.436157,733.438232 350.778320,732.175781 350.126709,730.978394 349.474121,729.827393 348.812744,728.703857 348.135498,727.589111 347.434937,726.464478 346.703613,725.311035 345.934082,724.110229 345.119019,722.843262 344.250854,721.491211 343.600708,720.481079 342.985962,719.537842 342.398315,718.649292 341.829224,717.803101 341.270020,716.986694 340.712036,716.187744 340.146851,715.394043 339.565552,714.593018 338.959839,713.772339 338.321167,712.919800 337.640869,712.022827 336.910156,711.069092 336.021606,709.924927 335.179077,708.860718 334.372437,707.861572 333.591309,706.912292 332.825439,705.997559 332.064575,705.102295 331.298584,704.211243 330.517090,703.309204 329.709961,702.380981 328.866821,701.411499 327.977539,700.385437 327.031860,699.287598 326.083374,698.168335 325.205444,697.108765 324.382202,696.098999 323.597290,695.128967 322.834595,694.188599 322.078003,693.268005 321.311279,692.357056 320.518311,691.445740 319.682861,690.524109 318.788940,689.582092 317.820190,688.609619 316.760864,687.596741 315.723877,686.645142 314.736206,685.771301 313.785889,684.962646 312.860474,684.206543 311.947632,683.490356 311.035400,682.801453 310.111572,682.127258 309.163574,681.455017 308.179688,680.772217 307.147339,680.066223 306.054443,679.324402 304.888794,678.534058 303.419800,677.546997 302.034424,676.636047 300.714233,675.788391 299.441284,674.990967 298.197510,674.230774 296.964722,673.495056 295.724976,672.770691 294.460083,672.044800 293.151978,671.304443 291.782471,670.536743 290.333618,669.728577 288.787354,668.867249 287.107788,667.939758 285.527344,667.083618 284.025635,666.285645 282.582153,665.532410 281.176758,664.810852 279.789062,664.107605 278.398560,663.409546 276.984985,662.703308 275.527954,661.975769 274.006836,661.213623 272.401855,660.403687 270.692139,659.532654 269.196899,658.773560 267.791260,658.071594 266.457642,657.414246 265.178711,656.789246 263.937256,656.184143 262.715698,655.586548 261.496826,654.984192 260.262939,654.364624 258.997070,653.715515 257.681396,653.024414 256.299194,652.278992 254.832520,651.466858 253.611572,650.779724 252.469849,650.131653 251.392456,649.512817 250.364990,648.913635 249.372559,648.324646 248.400513,647.735962 247.434204,647.138000 246.458862,646.521301 245.460083,645.876038 244.422852,645.192688 243.332642,644.461487 242.174805,643.672974 240.918457,642.810303 239.742310,641.998901 238.632690,641.225830 237.575317,640.478333 236.556152,639.743652 235.560913,639.008972 234.575806,638.261536 233.586548,637.488525 232.578979,636.677124 231.539062,635.814636 230.452759,634.888306 229.305786,633.885254 227.839355,632.580933 226.472778,631.348511 225.189819,630.169800 223.974731,629.026611 222.811401,627.900757 221.684204,626.773926 220.576782,625.628113 219.473145,624.444824 218.357666,623.206177 217.214111,621.893738 216.026489,620.489441 214.778931,618.974976 213.741211,617.693176 212.777100,616.483032 211.876465,615.327393 211.029419,614.208557 210.225952,613.109131 209.456177,612.011536 208.710083,610.898376 207.977661,609.752014 207.249023,608.555054 206.514038,607.289978 205.762817,605.939331 204.985596,604.485535 204.001587,602.564148 203.119629,600.744507 202.324951,599.003845 201.602539,597.319458 200.937256,595.668701 200.314819,594.028870 199.719727,592.377319 199.137329,590.691284 198.552856,588.948059 197.951294,587.125000 197.317871,585.199402 196.637329,583.148621 195.978149,581.167480 195.366821,579.308167 194.798096,577.545227 194.266479,575.853149 193.766235,574.206543 193.292114,572.579834 192.838623,570.947632 192.399902,569.284363 191.970825,567.564697 191.545654,565.763000 191.119019,563.853821 190.685303,561.811768 190.322754,560.003052 190.006714,558.303955 189.731201,556.692261 189.489502,555.145325 189.275513,553.640991 189.082642,552.156616 188.904419,550.669922 188.734619,549.158508 188.567017,547.599854 188.394775,545.971680 188.211914,544.251526 188.011963,542.416931 187.797974,540.475159 187.602051,538.655273 187.421997,536.932678 187.256592,535.282837 187.104248,533.681335 186.963135,532.103516 186.832153,530.524841 186.709595,528.920898 186.593750,527.267090 186.483276,525.538879 186.376343,523.711670 186.271606,521.761047 186.170288,519.628967 186.091675,517.630798 186.032349,515.739746 185.989258,513.928955 185.959351,512.171631 185.939087,510.440857 185.925537,508.709900 185.915161,506.951904 185.904907,505.140015 185.891724,503.247375 185.872070,501.247192 185.842896,499.112732 185.810303,497.066528 185.779663,495.149353 185.750977,493.335571 185.724243,491.599182 185.699097,489.914368 185.675659,488.255432 185.653809,486.596497 185.633545,484.911682 185.614502,483.175171 185.596924,481.361206 185.580688,479.443970 185.565430,477.397522 185.551025,475.032837 185.540771,472.817322 185.534424,470.721130 185.531128,468.714417 185.530273,466.767456 185.531372,464.850220 185.533569,462.933105 185.536255,460.986023 185.538940,458.979370 185.541016,456.883118 185.541504,454.667542 185.540283,452.302734 185.538696,450.106750 185.538696,448.049255 185.539673,446.102600 185.541138,444.239075 185.542603,442.431091 185.543823,440.650635 185.543945,438.870300 185.542847,437.062256 185.539795,435.198730 185.534424,433.252136 185.526367,431.194702 185.515015,428.998718 185.499146,426.505493 185.481689,424.169678 185.462524,421.959595 185.441895,419.844055 185.419922,417.791382 185.396729,415.770142 185.372437,413.749023 185.347046,411.696350 185.320679,409.580811 185.293579,407.370911 185.265869,405.035095 185.237671,402.541992 185.209839,400.091675 185.182983,397.795959 185.156616,395.623901 185.130737,393.544617 185.105591,391.527161 185.080566,389.540710 185.056030,387.554138 185.031738,385.536743 185.007446,383.457458 184.983398,381.285400 184.959106,378.989624 184.934937,376.539307 184.905151,373.701538 184.872925,371.042969 184.839722,368.527527 184.806885,366.119507 184.775391,363.783142 184.746948,361.482544 184.722534,359.181885 184.703613,356.845459 184.691284,354.437439 184.687134,351.921997 184.692261,349.263306 184.708008,346.425537 184.727783,343.850952 184.749390,341.438843 184.773560,339.156677 184.801758,336.971924 184.835083,334.852295 184.874756,332.765198 184.922119,330.678345 184.978149,328.559143 185.044067,326.375366 185.120972,324.094360 185.210449,321.683899 185.313232,319.111389 185.411987,316.789551 185.510742,314.614563 185.610840,312.557007 185.713745,310.587585 185.820557,308.677063 185.933105,306.796265 186.052490,304.915894 186.180054,303.006714 186.317383,301.039307 186.465820,298.984558 186.626587,296.813110 186.801270,294.495789 186.967041,292.332703 187.125854,290.306335 187.280640,288.389526 187.433472,286.554932 187.587158,284.775269 187.744141,283.023499 187.906738,281.272095 188.077637,279.493958 188.259521,277.662048 188.454590,275.748840 188.665527,273.727295 188.894653,271.570007 189.101318,269.612427 189.291016,267.777466 189.468994,266.040894 189.640747,264.378601 189.811890,262.766174 189.987427,261.179443 190.173218,259.594055 190.374268,257.985779 190.596436,256.330322 190.844727,254.603455 191.124756,252.780884 191.441895,250.838440 191.765381,248.930908 192.076050,247.144470 192.379639,245.455688 192.681763,243.841003 192.988159,242.276733 193.304443,240.739441 193.636475,239.205566 193.989746,237.651428 194.370117,236.053711 194.782959,234.388672 195.234131,232.632812 195.729492,230.762695 196.247314,228.844360 196.740112,227.048279 197.216919,225.351318 197.686523,223.730164 198.157593,222.161865 198.639038,220.623108 199.139648,219.090576 199.667969,217.541321 200.233032,215.952026 200.843628,214.299500 201.508545,212.560486 202.236450,210.712097 202.826660,209.254822 203.395264,207.895691 203.948853,206.616394 204.494995,205.398499 205.040283,204.223572 205.591797,203.073181 206.156616,201.928955 206.741577,200.772400 207.353882,199.585144 208.000488,198.348877 208.688354,197.045044 209.424438,195.655273 210.042847,194.496582 210.629517,193.414856 211.192139,192.395386 211.738647,191.423767 212.276611,190.485413 212.813965,189.565674 213.358521,188.650146 213.917969,187.724121 214.500122,186.773193 215.112793,185.782654 215.763916,184.738037 216.460938,183.624939 217.138062,182.538574 217.768677,181.517212 218.363892,180.549438 218.935669,179.623657 219.495117,178.728516 220.053711,177.852295 220.622803,176.983643 221.213989,176.111084 221.838745,175.223022 222.508179,174.307983 223.233887,173.354492 224.027344,172.351196 224.742432,171.471924 225.422119,170.655518 226.076172,169.891479 226.713501,169.169678 227.343994,168.479736 227.976685,167.811157 228.621216,167.153931 229.286987,166.497559 229.983398,165.831787 230.719727,165.146362 231.505493,164.430908 232.350098,163.675171 233.264160,162.874878 234.131836,162.138306 234.964111,161.454590 235.771606,160.813232 236.565186,160.203247 237.355835,159.613892 238.154053,159.034424 238.970947,158.453857 239.817261,157.861694 240.703735,157.247070 241.640991,156.599121 242.640259,155.907104 243.520020,155.296265 244.345093,154.724487 245.127808,154.185669 245.879761,153.673584 246.612915,153.182129 247.339355,152.705200 248.070923,152.236572 248.819702,151.770142 249.597412,151.299805 250.416138,150.819336 251.287720,150.322754 252.224121,149.803711 253.178589,149.288452 254.078491,148.816528 254.935791,148.381104 255.761963,147.974976 256.569092,147.591675 257.368652,147.223999 258.172363,146.865112 258.992188,146.508179 259.839722,146.146240 260.726562,145.772339 261.664551,145.379639 262.665527,144.961304 263.618164,144.568970 264.514893,144.211670 265.366577,143.882690 266.185303,143.575684 266.981812,143.284058 267.768188,143.001343 268.555420,142.720947 269.354980,142.436523 270.178345,142.141479 271.036865,141.829346 271.942139,141.493530 272.905273,141.127686 274.041504,140.692993 275.107178,140.288940 276.116455,139.908325 277.082642,139.544312 278.019653,139.189819 278.941162,138.837891 279.860718,138.481323 280.792236,138.113403 281.749268,137.726807 282.745605,137.314819 283.794678,136.870239 284.910522,136.386108 285.898804,135.950684 286.823486,135.539062 287.696533,135.145264 288.530029,134.763184 289.335938,134.386475 290.126587,134.009399 290.914062,133.625488 291.710205,133.228882 292.527466,132.813477 293.377808,132.372925 294.273193,131.901245 295.225830,131.392456 296.298828,130.819214 297.307129,130.284790 298.261963,129.778931 299.174683,129.291260 300.056519,128.811523 300.919189,128.329590 301.773560,127.834839 302.631592,127.317139 303.503906,126.765991 304.402466,126.171265 305.338379,125.522705 306.322998,124.809692 307.166748,124.178589 307.949951,123.576294 308.682129,122.994385 309.373413,122.424561 310.033325,121.858398 310.671631,121.287476 311.298218,120.703613 311.922729,120.098145 312.554932,119.462769 313.204590,118.789307 313.881592,118.069214 314.595337,117.293945 315.242920,116.581177 315.845459,115.907959 316.409546,115.264160 316.940796,114.639893 317.445435,114.025024 317.929810,113.409668 318.399780,112.783813 318.861572,112.137573 319.321411,111.460693 319.785156,110.743530 320.259033,109.975708 320.749268,109.147583 321.332642,108.138062 321.874268,107.185303 322.376831,106.275513 322.843384,105.395386 323.276611,104.531372 323.679443,103.669922 324.054688,102.797607 324.405151,101.900757 324.733887,100.965820 325.043457,99.979492 325.336792,98.928223 325.616943,97.798218 325.912598,96.588501 326.210571,95.434570 326.496948,94.326538 326.758667,93.254150 326.981567,92.207520 327.152344,91.176758 327.257690,90.151489 327.283691,89.121948 327.216797,88.078003 327.043213,87.009521 326.750000,85.906494 326.323120,84.759033 325.283081,82.433472 324.167114,80.205322 322.963867,78.093994 321.662842,76.118652 320.252930,74.298584 318.723389,72.653320 317.063354,71.202026 315.261719,69.964233 313.307983,68.958984 311.190918,68.205933 308.899780,67.724121 306.423828,67.533203 305.758301,67.569092 305.153076,67.692993 304.601196,67.896851 304.095581,68.173096 303.629272,68.513916 303.195190,68.911255 302.786499,69.357422 302.395996,69.844727 302.016479,70.365112 301.641357,70.911011 301.263184,71.474487 300.875244,72.047729 300.532471,72.580444 300.244263,73.097290 300.003296,73.603149 299.802368,74.102783 299.634644,74.601196 299.492554,75.102783 299.369263,75.612793 299.257446,76.135620 299.150024,76.676392 299.039673,77.239868 298.919312,77.830688 298.781860,78.453735 298.605957,79.238281 298.452637,79.975952 298.318970,80.676147 298.202759,81.348999 298.101440,82.003784 298.012329,82.650513 297.933105,83.298706 297.861328,83.958252 297.794189,84.638672 297.729370,85.349854 297.664307,86.101318 297.596558,86.902832 297.517944,87.884033 297.452759,88.804077 297.400024,89.675171 297.358643,90.509644 297.327148,91.319946 297.304688,92.118164 297.290039,92.916626 297.281982,93.727783 297.279541,94.563843 297.281372,95.437012 297.286621,96.359741 297.293945,97.344238 297.308350,98.678833 297.330078,99.928955 297.359009,101.111694 297.395142,102.243774 297.437988,103.342041 297.487915,104.423096 297.544434,105.504028 297.607666,106.601440 297.677490,107.732422 297.753540,108.913330 297.835938,110.161377 297.924316,111.493042 298.054077,113.380615 298.183838,115.148438 298.314941,116.820557 298.448120,118.420410 298.583984,119.972412 298.723633,121.500000 298.868042,123.027222 299.017822,124.577881 299.174072,126.176147 299.337646,127.845459 299.509155,129.609863 299.689819,131.493286 299.901367,133.688110 300.104858,135.744019 300.302002,137.688599 300.494385,139.549683 300.683594,141.355225 300.871582,143.133057 301.059448,144.910767 301.249390,146.716309 301.442871,148.577515 301.641479,150.521851 301.846680,152.577637 302.060669,154.772095 302.296997,157.213989 302.520874,159.501587 302.733765,161.665894 302.937134,163.737793 303.132568,165.748291 303.321533,167.728271 303.505615,169.708618 303.686401,171.720459 303.865234,173.794434 304.043823,175.961548 304.223755,178.252808 304.406128,180.699219 304.589478,183.239563 304.757324,185.619995 304.911255,187.872620 305.052612,190.029541 305.182617,192.122681 305.302612,194.184265 305.414307,196.246277 305.518921,198.340759 305.617798,200.499878 305.712402,202.755676 305.804077,205.140198 305.894287,207.685608 305.967529,209.873535 306.032715,211.923767 306.089844,213.863647 306.138428,215.721069 306.178467,217.523315 306.209595,219.298157 306.231567,221.073059 306.244141,222.875610 306.247314,224.733459 306.240479,226.674011 306.223755,228.725037 306.196899,230.914001 306.164917,233.440613 306.140015,235.808960 306.116455,238.050415 306.089233,240.196472 306.052734,242.278442 306.001587,244.327942 305.930542,246.376099 305.833984,248.454529 305.706909,250.594604 305.543579,252.827637 305.338745,255.185120 305.087158,257.698547 304.819458,260.191345 304.559814,262.528137 304.300049,264.738953 304.031738,266.853577 303.746460,268.902100 303.435913,270.914368 303.091675,272.920349 302.705322,274.949890 302.268677,277.032959 301.773315,279.199585 301.210571,281.479614 300.572632,283.903076 300.008789,285.955383 299.462280,287.875732 298.922485,289.687805 298.379395,291.415283 297.822144,293.081970 297.240479,294.711426 296.624023,296.327698 295.962280,297.954163 295.244751,299.614746 294.460938,301.333130 293.600586,303.132996 292.653198,305.038147 291.733887,306.836548 290.852905,308.514954 289.995850,310.092834 289.147949,311.589478 288.294922,313.024353 287.421997,314.416870 286.514526,315.786560 285.558105,317.152710 284.538208,318.534668 283.439941,319.951965 282.249023,321.423950 280.950684,322.970154 279.741577,324.352905 278.576294,325.618896 277.442017,326.787048 276.325806,327.876770 275.214600,328.906982 274.095947,329.896851 272.956543,330.865479 271.783691,331.831970 270.564453,332.815674 269.285767,333.835327 267.935059,334.910339 266.499268,336.059814 265.025635,337.241516 263.639282,338.343018 262.320190,339.376770 261.048096,340.355225 259.803467,341.290894 258.566162,342.196167 257.316284,343.083496 256.033813,343.965393 254.699219,344.854126 253.292236,345.762329 251.792847,346.702332 250.181274,347.686646 248.588867,348.633179 247.084351,349.498352 245.648438,350.295227 244.261597,351.036743 242.905029,351.735962 241.558960,352.405823 240.204346,353.059448 238.821899,353.709778 237.392334,354.369934 235.896362,355.052856 234.314453,355.771545 232.627441,356.539185 231.127930,357.226379 229.723022,357.873474 228.392578,358.485352 227.116455,359.066528 225.874390,359.621704 224.646240,360.155518 223.411865,360.672668 222.150635,361.177917 220.842773,361.675781 219.467773,362.170959 218.005615,362.668335 216.435669,363.172241 214.667236,363.714722 213.003418,364.204468 211.422607,364.646667 209.902466,365.046936 208.420898,365.410522 206.955566,365.742920 205.484619,366.049438 203.985596,366.335693 202.436646,366.606750 200.815430,366.868286 199.099976,367.125671 197.267944,367.384094 195.114868,367.676880 193.093750,367.941467 191.177612,368.176331 189.339844,368.380005 187.554077,368.550781 185.793457,368.687195 184.031250,368.787598 182.240967,368.850586 180.396118,368.874329 178.469849,368.857544 176.435425,368.798523 174.266602,368.695618 172.241943,368.569153 170.345459,368.421631 168.552612,368.249817 166.838989,368.050598 165.180176,367.820862 163.551880,367.557312 161.929565,367.256775 160.289062,366.916077 158.605713,366.532166 156.855347,366.101807 155.013428,365.621826 153.055786,365.089050 150.925415,364.489136 148.933105,363.904602 147.054443,363.324951 145.264526,362.739319 143.538940,362.137268 141.852783,361.507935 140.181763,360.840759 138.501099,360.125122 136.786133,359.350281 135.012207,358.505676 133.154785,357.580566 131.189209,356.564392 129.142944,355.474182 127.237793,354.425171 125.450439,353.401978 123.757812,352.388733 122.136475,351.369995 120.563354,350.329895 119.015259,349.253052 117.468750,348.123657 115.900879,346.926147 114.288208,345.644836 112.607788,344.264282 110.835938,342.768555 109.079834,341.235107 107.468628,339.761108 105.977783,338.330200 104.582642,336.926270 103.258667,335.533020 101.981201,334.134033 100.725586,332.713135 99.467041,331.254028 98.181274,329.740479 96.843384,328.156250 95.428711,326.484985 93.912842,324.710449 92.086548,322.573486 90.388428,320.559998 88.796021,318.642883 87.286377,316.795349 85.836670,314.990234 84.423950,313.200745 83.025757,311.399780 81.618896,309.560547 80.180908,307.655823 78.688843,305.658936 77.119873,303.542664 75.451172,301.280151 73.964722,299.252258 72.581299,297.345459 71.282104,295.534058 70.048950,293.792480 68.863281,292.094910 67.706665,290.415833 66.560669,288.729370 65.406860,287.009888 64.226562,285.231750 63.001709,283.369019 61.713623,281.396240 60.343872,279.287598 58.739746,276.802368 57.247314,274.467102 55.846069,272.250671 54.515747,270.121887 53.235962,268.049500 51.986206,266.002441 50.745972,263.949402 49.494995,261.859253 48.212891,259.700684 46.879150,257.442627 45.473633,255.053833 43.975464,252.503052 42.753906,250.429688 41.604614,248.489380 40.515625,246.654053 39.474731,244.895874 38.469971,243.187012 37.489380,241.499390 36.521118,239.805298 35.552856,238.076538 34.572632,236.285400 33.568604,234.403931 32.528564,232.404114 31.440674,230.258301 30.447388,228.265564 29.525513,226.393494 28.664429,224.616333 27.853516,222.908264 27.082153,221.243774 26.340088,219.596863 25.616455,217.941833 24.900879,216.252991 24.182739,214.504517 23.451416,212.670715 22.696411,210.725708 21.907227,208.643921 21.036377,206.318359 20.225830,204.135498 19.469360,202.065247 18.760620,200.077148 18.093384,198.140991 17.461548,196.226501 16.858765,194.303345 16.278931,192.341370 15.715698,190.310242 15.162842,188.179504 14.614136,185.919189 14.063477,183.498718 13.598022,181.377319 13.170044,179.384155 12.779907,177.493042 12.427979,175.677246 12.114746,173.910278 11.840454,172.165405 11.605713,170.416016 11.410767,168.635864 11.255981,166.798096 11.141846,164.876221 11.068726,162.843628 11.036987,160.673828 11.040039,159.190430 11.065186,157.798828 11.114258,156.481567 11.189331,155.220947 11.292358,153.999268 11.425049,152.799072 11.589355,151.602661 11.787354,150.392578 12.020874,149.151001 12.291870,147.860474 12.602295,146.503418 12.953857,145.062134 13.272095,143.813599 13.583984,142.644653 13.896606,141.541504 14.216797,140.490479 14.551270,139.477905 14.906982,138.490479 15.290771,137.514282 15.709473,136.535645 16.170166,135.541138 16.679443,134.517090 17.244507,133.449707 17.871826,132.325562 18.509644,131.233521 19.130127,130.221924 19.741455,129.278809 20.351807,128.391479 20.969604,127.547607 21.603027,126.734619 22.260376,125.939941 22.949951,125.151489 23.679810,124.356445 24.458496,123.542603 25.293945,122.697388 26.194702,121.808472 27.072754,120.968750 27.913452,120.201294 28.726929,119.494873 29.523315,118.838501 30.312622,118.220703 31.104858,117.630493 31.910278,117.056519 32.738770,116.487793 33.600342,115.912964 34.505249,115.320923 35.463379,114.700439 36.484863,114.040405 37.579834,113.329102 38.607300,112.660156 39.582764,112.029175 40.522217,111.432129 41.441040,110.864868 42.354980,110.323364 43.279907,109.803467 44.231323,109.300903 45.224854,108.811523 46.276489,108.331421 47.401611,107.856323 48.616089,107.382080 49.914673,106.919556 51.144531,106.529785 52.320557,106.202026 53.457397,105.925293 54.569702,105.688599 55.672607,105.480835 56.780640,105.291260 57.908569,105.108643 59.071411,104.922241 60.283813,104.720825 61.560425,104.493530 62.916382,104.229614 64.538330,103.889038 66.056396,103.555664 67.491699,103.231201 68.865356,102.916992 70.198975,102.614990 71.513550,102.326782 72.830322,102.053711 74.170776,101.797729 75.555908,101.560303 77.007080,101.343140 78.545532,101.147827 80.192627,100.976074 82.066284,100.808228 83.825317,100.667358 85.492310,100.554321 87.090332,100.470581 88.642456,100.416992 90.171387,100.394531 91.700073,100.404419 93.251465,100.447754 94.848511,100.525391 96.514038,100.638672 98.270996,100.788574 100.142334,100.976074 101.742676,101.156616 103.240723,101.346924 104.656006,101.550415 106.007812,101.770874 107.314941,102.012085 108.597046,102.277344 109.873169,102.570557 111.162720,102.895264 112.484741,103.255127 113.858521,103.653931 115.303467,104.095215 116.838623,104.582642 118.402344,105.088623 119.868896,105.570801 121.254639,106.040283 122.576050,106.508179 123.849487,106.985962 125.091553,107.484619 126.318604,108.015381 127.546997,108.589478 128.793213,109.218140 130.073730,109.912598 131.405029,110.683960 132.803345,111.543579 134.034912,112.328979 135.184082,113.082397 136.261475,113.816528 137.277588,114.544434 138.243164,115.278809 139.168945,116.032593 140.065308,116.818604 140.943115,117.649658 141.812988,118.538818 142.685303,119.498657 143.571045,120.542358 144.480591,121.682373 145.245850,122.697388 145.934814,123.671265 146.555908,124.615967 147.117798,125.542969 147.628906,126.464233 148.098022,127.391357 148.533569,128.336304 148.944214,129.310669 149.338501,130.326294 149.724854,131.394775 150.112061,132.528076 150.508423,133.737915 150.974976,135.200806 151.399658,136.582520 151.781494,137.900391 152.119385,139.171997 152.412231,140.414795 152.658813,141.646362 152.858154,142.884033 153.009033,144.145630 153.110474,145.448242 153.161133,146.809570 153.160034,148.247192 153.106201,149.778442 153.003418,151.400024 152.863647,152.921265 152.683350,154.359375 152.458984,155.731445 152.186768,157.054932 151.863281,158.346802 151.484863,159.624268 151.047729,160.904663 150.548584,162.205078 149.983643,163.542847 149.349365,164.935059 148.642090,166.398926 148.048706,167.568115 147.464478,168.654053 146.880371,169.668091 146.287842,170.621094 145.677612,171.524536 145.041016,172.389404 144.369019,173.226929 143.652832,174.048340 142.883545,174.864624 142.052246,175.687134 141.149902,176.526978 140.167847,177.395264 138.915649,178.451050 137.711670,179.409180 136.541138,180.280151 135.388916,181.074097 134.239990,181.801392 133.079590,182.472412 131.892578,183.097534 130.664062,183.686768 129.379028,184.250977 128.022583,184.800110 126.579712,185.344543 125.035278,185.894714 123.109741,186.546753 121.287354,187.124084 119.545410,187.628845 117.861572,188.063416 116.213135,188.429749 114.577759,188.730164 112.932617,188.967041 111.255371,189.142395 109.523438,189.258606 107.714355,189.317871 105.805420,189.322388 103.774170,189.274292 101.939697,189.192322 100.216675,189.075806 98.585449,188.919800 97.026611,188.718933 95.520752,188.468201 94.048462,188.162476 92.590332,187.796570 91.127075,187.365479 89.639160,186.864014 88.107178,186.286926 86.511719,185.629272 84.833252,184.885925 83.312256,184.166321 81.905640,183.447815 80.596313,182.721558 79.367676,181.978882 78.202637,181.210938 77.084229,180.408936 75.995605,179.564331 74.919800,178.668213 73.839966,177.711914 72.739136,176.686646 71.600464,175.583496 70.406982,174.393921 69.387329,173.345337 68.453613,172.339478 67.594604,171.363403 66.799194,170.404175 66.056152,169.448853 65.354248,168.484497 64.682251,167.498169 64.028931,166.476929 63.383057,165.407837 62.733398,164.277832 62.068726,163.074097 61.377808,161.783569 60.622192,160.323730 59.940308,158.941162 59.324341,157.617554 58.765625,156.335205 58.256348,155.076294 57.787842,153.822876 57.352051,152.557007 56.940796,151.260864 56.545776,149.916504 56.158691,148.505981 55.771240,147.011475 55.375366,145.415161 54.932495,143.565552 54.535278,141.825073 54.182617,140.170776 53.873291,138.580322 53.606323,137.030518 53.380493,135.499023 53.194702,133.962891 53.047974,132.399170 52.938965,130.785278 52.866699,129.098511 52.830078,127.316040 52.828003,125.415039 52.856689,123.698120 52.916382,122.088989 53.008057,120.567139 53.132446,119.111694 53.290405,117.702271 53.482544,116.317871 53.709839,114.937988 53.973022,113.541870 54.272827,112.109009 54.610229,110.618530 54.985840,109.049805 55.400513,107.382202 55.827637,105.726318 56.248535,104.178711 56.670044,102.719849 57.099487,101.330078 57.543457,99.990112 58.009277,98.680176 58.504028,97.380737 59.034546,96.072388 59.607910,94.735474 60.231079,93.350464 60.911255,91.897827 61.655273,90.358032 62.361572,88.940552 63.044312,87.622192 63.712402,86.385864 64.375000,85.214478 65.041138,84.090698 65.719604,82.997070 66.419678,81.916626 67.150269,80.832153 67.920410,79.726196 68.739136,78.581787 69.615356,77.381470 70.558228,76.108276 71.646362,74.660767 72.680786,73.315063 73.676147,72.053833 74.646851,70.860352 75.606934,69.716919 76.571167,68.606812 77.553711,67.512573 78.568848,66.417358 79.631226,65.303833 80.755005,64.154785 81.954590,62.953247 83.244385,61.682007 84.690430,60.274170 86.055908,58.964355 87.360718,57.737061 88.624390,56.577148 89.866577,55.469238 91.106934,54.398071 92.365112,53.348267 93.660889,52.304810 95.013916,51.252075 96.443848,50.174927 97.970215,49.057983 99.612793,47.886108 101.414795,46.630005 103.118774,45.474365 104.747314,44.404419 106.322876,43.404785 107.868286,42.460449 109.405884,41.556274 110.958618,40.677368 112.548950,39.808594 114.199463,38.934937 115.932983,38.041138 117.771851,37.112305 119.738892,36.133301 121.797485,35.129517 123.737793,34.213867 125.585571,33.372559 127.365845,32.591675 129.103882,31.857666 130.824951,31.156738 132.554321,30.475220 134.317261,29.799194 136.139282,29.115234 138.045166,28.409424 140.060669,27.667969 142.210693,26.877197 144.564087,26.010498 146.770874,25.200928 148.861694,24.440918 150.867065,23.723389 152.817627,23.041016 154.744019,22.386230 156.676758,21.751953 158.646484,21.130737 160.683960,20.515259 162.819336,19.898071 165.083618,19.272095 167.507202,18.630005 169.992432,17.996338 172.326782,17.425415 174.541382,16.909424 176.667480,16.440063 178.735840,16.009521 180.777954,15.609741 182.824707,15.232788 184.907104,14.870483 187.056396,14.515015 189.303589,14.158325 191.679810,13.792480 194.216187,13.409180 196.637207,13.050049 198.907593,12.723633 201.057739,12.427612 203.118408,12.158936 205.119873,11.915161 207.092896,11.693726 209.068115,11.491943 211.075684,11.307251 213.146362,11.136597 215.310547,10.978027 217.599121,10.828369 220.042480,10.685303 222.400269,10.549194 224.611816,10.416016 226.706421,10.291748 228.712891,10.182129 230.660400,10.093140 232.578125,10.030396 234.495117,10.000000 236.440430,10.007324 238.443115,10.058716 240.532349,10.159790 242.737061,10.316162 245.086670,10.534058 246.833374,10.698730 248.487061,10.833984 250.062744,10.957520 251.575439,11.086548 253.039917,11.238647 254.471069,11.431396 255.883911,11.682007 257.293335,12.008301 258.714355,12.427612 260.161621,12.957275 261.650269,13.614990 263.195312,14.417969 266.394897,16.283447 269.566895,18.298462 272.683472,20.461060 275.716675,22.769165 278.638794,25.221191 281.421753,27.814819 284.037720,30.548584 286.458740,33.420044 288.657104,36.427490 290.604736,39.569214 292.274048,42.842896 293.636841,46.246826 294.081421,47.725830 294.374512,49.138306 294.530151,50.498047 294.562134,51.818726 294.484619,53.113770 294.311523,54.397095 294.056885,55.682251 293.734497,56.982910 293.358521,58.312988 292.942749,59.685913 292.501221,61.115356 292.047974,62.615112 291.522217,64.310791 290.981567,65.886353 290.419922,67.361328 289.830811,68.755127 289.208496,70.087646 288.546509,71.378052 287.838867,72.646240 287.079102,73.911743 286.261353,75.193848 285.379150,76.512329 284.426514,77.886719 283.397095,79.336548 282.461670,80.617310 281.558960,81.799561 280.677124,82.898193 279.804443,83.927979 278.929199,84.903809 278.039795,85.840454 277.124268,86.752808 276.171021,87.655640 275.168213,88.563599 274.104126,89.491821 272.966919,90.454956 271.745117,91.467896 270.378784,92.579102 269.083130,93.604980 267.840088,94.556396 266.631470,95.444458 265.439087,96.279419 264.245239,97.072510 263.031494,97.834595 261.780029,98.576172 260.472290,99.308228 259.090576,100.041870 257.616699,100.787476 256.032593,101.556030 254.234009,102.388306 252.531128,103.127319 250.902222,103.785889 249.326050,104.376099 247.781372,104.910889 246.246704,105.402222 244.700928,105.862793 243.122437,106.305054 241.490356,106.741211 239.783081,107.183960 237.979126,107.645630 236.057617,108.138794 233.637939,108.754395 231.365601,109.313232 229.209839,109.821167 227.140381,110.283813 225.126587,110.707153 223.138062,111.096924 221.144287,111.458984 219.114746,111.799072 217.019165,112.123169 214.826660,112.436890 212.506958,112.746216 210.029663,113.056763 208.052979,113.295654 206.198364,113.512207 204.441284,113.705444 202.756958,113.874512 201.120728,114.018433 199.508179,114.136230 197.894287,114.226929 196.254639,114.289673 194.564575,114.323608 192.799316,114.327637 190.934448,114.300781 188.944946,114.242188 186.834595,114.155273 184.856934,114.050659 182.986328,113.925659 181.197021,113.776978 179.463257,113.601440 177.759644,113.396240 176.059937,113.158081 174.338867,112.884033 172.570679,112.571045 170.729370,112.215820 168.789551,111.815552 166.725464,111.367065 165.127930,111.001831 163.635498,110.638672 162.228760,110.272705 160.887695,109.899414 159.592773,109.514160 158.323975,109.112427 157.061646,108.689453 155.786133,108.240723 154.477417,107.761597 153.115967,107.247559 151.681763,106.693848 150.155273,106.095947 148.923584,105.611572 147.768311,105.155518 146.676270,104.718506 145.634033,104.291260 144.628052,103.864014 143.644775,103.427734 142.670776,102.973145 141.692627,102.490356 140.696899,101.970459 139.670166,101.403931 138.598755,100.781372 137.469238,100.093384 136.286011,99.356934 135.175171,98.660767 134.126831,97.990967 133.131714,97.334229 132.179932,96.676758 131.261719,96.005005 130.367554,95.305420 129.487671,94.564331 128.612427,93.768066 127.732178,92.903320 126.837402,91.956055 125.918091,90.912964 124.982422,89.831787 124.080322,88.804199 123.219238,87.813965 122.406738,86.844360 121.650269,85.878906 120.957397,84.901123 120.335449,83.894287 119.792114,82.842163 119.334717,81.728027 118.970825,80.535400 118.708008,79.247681 118.553589,77.848511 118.522583,76.671631 118.588379,75.571289 118.744751,74.536011 118.985474,73.554077 119.304199,72.613892 119.694702,71.703735 120.150757,70.812012 120.666016,69.927002 121.234253,69.037109 121.849243,68.130737 122.504639,67.196045 123.194214,66.221680 124.112549,64.977051 125.024048,63.850708 125.936768,62.826050 126.858643,61.885864 127.797729,61.013428 128.762207,60.191528 129.759888,59.403442 130.798706,58.632202 131.886963,57.860962 133.032471,57.072510 134.243164,56.250122 135.527222,55.376709 137.150879,54.289551 138.693237,53.302490 140.173950,52.401245 141.612427,51.572144 143.028198,50.800903 144.440674,50.073486 145.869263,49.375854 147.333740,48.693970 148.853394,48.013794 150.447754,47.321289 152.136230,46.602417 153.938477,45.843262 155.828735,45.065430 157.610962,44.364990 159.308105,43.730469 160.943115,43.150146 162.539185,42.612305 164.118774,42.105469 165.705444,41.617676 167.321777,41.137451 168.990845,40.653076 170.735474,40.153076 172.578857,39.625488 174.543945,39.058838 176.384277,38.520874 178.108643,38.012329 179.741089,37.531128 181.305664,37.075195 182.826416,36.642212 184.327271,36.230713 185.832520,35.838135 187.366089,35.462646 188.952393,35.102295 190.615112,34.754639 192.378540,34.418091 194.266602,34.090332 196.063599,33.801392 197.750732,33.548462 199.350830,33.329102 200.885864,33.141479 202.378174,32.983398 203.850464,32.852783 205.324829,32.747437 206.823608,32.665405 208.369141,32.604248 209.983887,32.562256 211.690063,32.536987 213.510254,32.526611 215.395386,32.523071 217.164673,32.524170 218.840942,32.535767 220.446289,32.563721 222.003296,32.613525 223.534302,32.691162 225.062012,32.802490 226.608643,32.953125 228.196899,33.148926 229.848877,33.395630 231.587280,33.698975 233.434570,34.064941 234.867188,34.365601 236.214111,34.655029 237.489502,34.943481 238.707520,35.241211 239.882080,35.557983 241.027100,35.904175 242.156616,36.289673 243.284912,36.724487 244.425537,37.218872 245.592773,37.782837 246.800537,38.426392 248.062744,39.159668 249.382446,39.956055 250.633057,40.719849 251.816772,41.467529 252.936890,42.216064 253.995483,42.981934 254.995605,43.781860 255.939819,44.632568 256.831055,45.550659 257.671509,46.553101 258.464111,47.656128 259.211670,48.876709 259.916504,50.231567 260.507568,51.542603 261.001465,52.811401 261.400146,54.047607 261.705566,55.261597 261.920044,56.463135 262.045776,57.662231 262.084717,58.869019 262.038940,60.093140 261.910522,61.344727 261.701904,62.633789 261.414673,63.970215 261.051392,65.364258 260.680420,66.514648 260.249878,67.556152 259.764160,68.506226 259.226807,69.382446 258.641846,70.202271 258.012939,70.983032 257.344116,71.742432 256.639282,72.497925 255.901978,73.266968 255.136475,74.067139 254.346436,74.915894 253.535645,75.830688 252.708740,76.796143 251.932129,77.703857 251.192139,78.561401 250.474976,79.376099 249.766846,80.155396 249.053711,80.906494 248.322021,81.636963 247.557983,82.354248 246.747681,83.065552 245.877319,83.778442 244.933105,84.500000 243.901367,85.238159 242.739136,86.015503 241.626099,86.705200 240.550049,87.319580 239.498291,87.871460 238.458496,88.373291 237.417847,88.837646 236.364014,89.277222 235.284546,89.704590 234.166748,90.132324 232.998169,90.572876 231.766235,91.039062 230.458618,91.543335 228.983887,92.124512 227.600830,92.674927 226.289551,93.194946 225.030273,93.685425 223.802979,94.146729 222.587891,94.579712 221.365234,94.984741 220.115234,95.362427 218.817749,95.713501 217.453247,96.038574 216.001709,96.338013 214.443237,96.612793 212.552368,96.905640 210.772217,97.150391 209.080688,97.346924 207.455444,97.494995 205.874390,97.594604 204.314941,97.645264 202.754883,97.647095 201.171875,97.599731 199.543823,97.503174 197.848389,97.356934 196.062988,97.161133 194.165649,96.915527 192.605469,96.688232 191.143921,96.448853 189.763916,96.191772 188.447998,95.911133 187.179199,95.601562 185.939697,95.257202 184.712402,94.872681 183.479736,94.442261 182.224731,93.960205 180.929565,93.421021 179.577393,92.819092 178.150513,92.148682 176.804443,91.514160 175.518677,90.921997 174.290405,90.353638 173.116089,89.790283 171.992554,89.213379 170.917114,88.604004 169.885986,87.943481 168.896362,87.213257 167.944824,86.394531 167.028320,85.468628 166.143677,84.416870 165.287842,83.220459 164.707764,82.316528 164.177734,81.426025 163.703979,80.544434 163.292847,79.666992 162.950806,78.789307 162.683838,77.906616 162.498535,77.014404 162.401367,76.108032 162.398193,75.182983 162.495728,74.234619 162.700317,73.258301 163.017944,72.249512 163.477173,71.191040 164.020020,70.269287 164.640747,69.466309 165.333252,68.764282 166.091797,68.145264 166.910522,67.591309 167.783325,67.084473 168.704590,66.607056 169.667969,66.140991 170.667725,65.668701 171.698242,65.171753 172.753174,64.632690 173.912964,64.034790 175.015747,63.504028 176.075562,63.033569 177.105713,62.616577 178.119873,62.245850 179.131958,61.914795 180.155151,61.616333 181.203491,61.343506 182.290161,61.089355 183.429321,60.847046 184.634155,60.609619 185.918579,60.370361 187.232422,60.124023 188.473389,59.885010 189.655762,59.661621 190.793701,59.461914 191.901489,59.294067 192.993652,59.166138 194.084351,59.086182 195.187866,59.062378 196.318604,59.102661 197.490723,59.215210 198.718750,59.408081 200.016968,59.689453 201.395996,60.053223 202.682129,60.446777 203.887207,60.876099 205.022949,61.346924 206.101196,61.865112 207.133789,62.436523 208.132568,63.066650 209.109131,63.761719 210.075562,64.527466 211.043457,65.369629 212.024658,66.293823 213.031006,67.306152 213.851685,68.190186 214.585327,69.053833 215.240845,69.906006 215.827393,70.755859 216.353638,71.612427 216.828857,72.484741 217.261963,73.381592 217.661865,74.312500 218.037476,75.286133 218.397949,76.311646 218.752197,77.398071 219.109253,78.554688 219.565552,80.145752 219.946167,81.651733 220.255981,83.090698 220.500488,84.480957 220.684814,85.840820 220.814087,87.188110 220.893311,88.541382 220.927856,89.918701 220.923096,91.338257 220.883789,92.818237 220.815552,94.376953 220.723389,96.032715 220.586426,97.938843 220.412231,99.721802 220.199951,101.404541 219.948730,103.010254 219.658081,104.561890 219.327393,106.082886 218.955688,107.596191 218.542480,109.124878 218.087158,110.692139 217.588867,112.321045 217.046997,114.034790 216.460938,115.856323 215.900269,117.560547 215.354126,119.151855 214.814087,120.650513 214.271606,122.076416 213.718384,123.449707 213.145508,124.790894 212.544556,126.119629 211.906982,127.456299 211.224243,128.820801 210.487549,130.233643 209.688721,131.714600 208.819092,133.283936 207.871948,134.940918 206.956421,136.476929 206.062256,137.913452 205.178711,139.271973 204.295532,140.573853 203.402222,141.840576 202.488281,143.093750 201.543091,144.354614 200.556396,145.644653 199.517822,146.985352 198.416748,148.398071 197.242676,149.904541 195.844482,151.685669 194.519043,153.342285 193.249146,154.897095 192.017944,156.372925 190.807983,157.792358 189.602539,159.178101 188.384399,160.553345 187.136353,161.940430 185.841553,163.362305 184.482788,164.841553 183.042969,166.401001 181.504883,168.063477 180.243042,169.416626 179.050537,170.674683 177.912842,171.855835 176.815186,172.978394 175.742798,174.060669 174.681030,175.120605 173.614990,176.176636 172.530396,177.247070 171.411987,178.349976 170.245483,179.503540 169.016235,180.726074 167.709106,182.035889 166.758911,182.978149 165.856079,183.849365 164.992798,184.665161 164.160889,185.441101 163.352295,186.192627 162.559082,186.935242 161.773193,187.684570 160.986328,188.456055 160.190918,189.265259 159.378418,190.127502 158.541260,191.058533 157.671143,192.073792 156.947510,192.948853 156.280029,193.777893 155.660156,194.571960 155.079346,195.342102 154.528442,196.099243 153.999146,196.854370 153.482422,197.618469 152.969971,198.402710 152.452637,199.217957 151.921997,200.075378 151.369385,200.985779 150.785889,201.960327 150.136963,203.063477 149.541504,204.104187 148.990967,205.096497 148.477173,206.053711 147.991577,206.989746 147.525879,207.917969 147.071899,208.852417 146.620972,209.806396 146.164917,210.793579 145.695435,211.827759 145.203979,212.922546 144.682373,214.091553 144.067871,215.464050 143.489136,216.750122 142.942383,217.968567 142.424316,219.137878 141.931274,220.276550 141.459717,221.403076 141.005981,222.535950 140.566650,223.693970 140.138184,224.895569 139.716797,226.159058 139.299194,227.503357 138.881592,228.946655 138.432983,230.604736 138.040161,232.165527 137.696411,233.649536 137.395630,235.076843 137.131104,236.468018 136.896362,237.843445 136.685181,239.223450 136.490845,240.628296 136.307007,242.078308 136.127319,243.594055 135.945190,245.195862 135.754150,246.903931 135.531860,248.931824 135.333618,250.833984 135.159546,252.635742 135.009644,254.362549 134.883789,256.039673 134.781738,257.692505 134.703857,259.346252 134.649658,261.026489 134.619141,262.758484 134.612427,264.567505 134.629272,266.478882 134.669678,268.518250 134.727417,270.478699 134.801270,272.315369 134.892578,274.052551 135.002930,275.714661 135.133545,277.325806 135.286011,278.910645 135.461670,280.493164 135.661987,282.097961 135.888306,283.749146 136.142090,285.471069 136.424805,287.288147 136.737793,289.224609 137.056885,291.122070 137.372192,292.897339 137.688354,294.574097 138.009644,296.175903 138.340576,297.726379 138.685791,299.248962 139.049316,300.767517 139.436157,302.305481 139.850342,303.886475 140.296509,305.534119 140.779175,307.272095 141.302856,309.123840 141.669556,310.403687 142.018921,311.601746 142.356812,312.733337 142.689331,313.814087 143.022461,314.859436 143.361816,315.885071 143.713745,316.906311 144.083984,317.938782 144.478516,318.997986 144.903442,320.099304 145.364502,321.258484 145.867798,322.490906 146.483154,323.971497 147.068115,325.356262 147.631958,326.662476 148.184326,327.907776 148.734863,329.109619 149.292847,330.285522 149.867920,331.452942 150.469604,332.629333 151.107544,333.832214 151.791016,335.079041 152.529785,336.387390 153.333130,337.774780 154.140137,339.126892 154.917725,340.380188 155.674072,341.552979 156.416992,342.663757 157.154663,343.730774 157.895020,344.772522 158.645996,345.807251 159.415649,346.853455 160.212036,347.929504 161.043213,349.053650 161.916870,350.244446 162.841431,351.520142 163.712402,352.732300 164.528442,353.868286 165.301392,354.942566 166.043457,355.969482 166.766846,356.963379 167.483643,357.938782 168.205933,358.909912 168.945801,359.891357 169.715454,360.897217 170.526978,361.942078 171.392578,363.040222 172.324463,364.206238 173.006592,365.057190 173.644409,365.856445 174.248413,366.612732 174.829102,367.335022 175.397095,368.032288 175.962402,368.713318 176.535889,369.386963 177.127930,370.062378 177.749146,370.748230 178.409424,371.453552 179.119873,372.187073 179.890747,372.957825 180.701050,373.748657 181.468628,374.481750 182.203857,375.166382 182.917114,375.811768 183.619019,376.427246 184.320068,377.022034 185.030884,377.605408 185.761597,378.186646 186.523071,378.775085 187.325806,379.379761 188.179932,380.010193 189.096313,380.675415 190.685913,381.812012 192.186035,382.863281 193.616821,383.842041 194.998779,384.761536 196.352539,385.634705 197.698242,386.474670 199.056519,387.294312 200.447876,388.106812 201.892456,388.925171 203.411011,389.762390 205.023560,390.631592 206.750854,391.545654 208.449829,392.428711 210.049927,393.240723 211.572632,393.992249 213.039429,394.693604 214.471924,395.355103 215.891479,395.987122 217.319458,396.600098 218.777588,397.204468 220.287109,397.810486 221.869507,398.428528 223.546143,399.069092 225.338623,399.742432 226.920898,400.325745 228.408447,400.859070 229.820923,401.349487 231.178345,401.804321 232.500488,402.230652 233.807373,402.635437 235.118774,403.025940 236.454468,403.409363 237.834473,403.792603 239.278442,404.183044 240.806641,404.587646 242.438477,405.013611 244.012573,405.420044 245.489258,405.795227 246.888672,406.142700 248.230835,406.465881 249.535645,406.768372 250.823364,407.053467 252.113892,407.324829 253.427368,407.585754 254.783813,407.839661 256.203247,408.090210 257.705688,408.340881 259.311157,408.594971 260.834473,408.823975 262.263550,409.025879 263.617676,409.203491 264.915894,409.359741 266.177124,409.497559 267.420654,409.619568 268.665649,409.728882 269.931030,409.828186 271.235962,409.920532 272.599365,410.008728 274.040649,410.095520 275.578613,410.183899 277.247314,410.274902 278.811401,410.352722 280.291748,410.417603 281.709473,410.469788 283.085449,410.509399 284.440552,410.536987 285.796021,410.552612 287.172363,410.556580 288.590942,410.549133 290.072632,410.530640 291.638306,410.501221 293.309082,410.461304 295.026001,410.413147 296.634766,410.360352 298.156860,410.301453 299.613525,410.234680 301.026367,410.158569 302.416748,410.071350 303.806396,409.971558 305.216675,409.857300 306.668945,409.727295 308.184937,409.579712 309.785889,409.412964 311.493286,409.225464 313.213867,409.026184 314.824463,408.827026 316.346802,408.625977 317.802490,408.420776 319.213257,408.209412 320.600708,407.989624 321.986694,407.759338 323.392822,407.516418 324.840698,407.258667 326.352173,406.984070 327.948730,406.690430 329.652222,406.375549 330.817017,406.153931 331.906372,405.935303 332.934937,405.718933 333.918091,405.504028 334.870850,405.289917 335.808472,405.075928 336.745728,404.861206 337.698120,404.645203 338.680664,404.427002 339.708374,404.205933 340.796509,403.981384 341.959961,403.752502 342.698242,403.619995 343.393188,403.510742 344.053223,403.418945 344.686646,403.338867 345.301880,403.264465 345.907349,403.190186 346.511353,403.109863 347.122437,403.017883 347.748779,402.908325 348.398804,402.775391 349.080933,402.613220 349.803711,402.415894 350.129883,402.337585 350.467651,402.281799 350.810059,402.240234 351.149902,402.204346 351.480347,402.165527 351.794189,402.115540 352.084229,402.045654 352.343628,401.947693 352.565063,401.813049 352.741577,401.633240 352.865845,401.399841 352.931152,401.104370 352.924072,400.693970 352.820923,400.351379 352.633057,400.067017 352.372925,399.830933 352.052246,399.633484 351.683105,399.464661 351.277588,399.314758 350.847656,399.174072 350.405273,399.032715 349.962158,398.880859 349.530640,398.708740 349.122803,398.506653 348.002441,397.891418 346.941650,397.336548 345.927490,396.832275 344.947144,396.368225 343.987427,395.934631 343.035645,395.521301 342.078735,395.118347 341.103760,394.715698 340.097778,394.303284 339.047729,393.871216 337.941040,393.409302 336.764526,392.907593 335.150757,392.211182 333.638306,391.559998 332.206177,390.946167 330.833618,390.361938 329.500000,389.799622 328.184692,389.251282 326.866821,388.709229 325.525635,388.165771 324.140381,387.612854 322.690430,387.042847 321.155151,386.447998 319.513428,385.820496 317.776611,385.159729 316.148804,384.540100 314.607788,383.955994 313.130615,383.401306 311.694824,382.870178 310.277710,382.356628 308.856689,381.854797 307.409180,381.358643 305.912231,380.862427 304.343628,380.360107 302.680542,379.845825 300.900513,379.313538 299.181641,378.816528 297.566772,378.366943 296.034546,377.957336 294.563599,377.580505 293.132568,377.229248 291.719971,376.896301 290.304688,376.574219 288.865234,376.255920 287.380127,375.934143 285.828369,375.601440 284.188354,375.250732 282.438721,374.874634 280.501953,374.451599 278.687866,374.048462 276.971558,373.664429 275.327637,373.298462 273.731323,372.949707 272.157593,372.617310 270.581177,372.300232 268.977051,371.997803 267.320312,371.708923 265.585693,371.432800 263.748291,371.168457 261.782837,370.914978 260.047607,370.710938 258.419678,370.535217 256.877197,370.385864 255.398682,370.261230 253.962524,370.159485 252.546753,370.078613 251.129883,370.016968 249.690308,369.972595 248.206299,369.943665 246.656006,369.928406 245.018066,369.924866 243.270752,369.931396 241.260498,369.950623 239.376709,369.984070 237.594604,370.032898 235.888916,370.097778 234.234497,370.179871 232.606323,370.280212 230.979492,370.399597 229.328613,370.539185 227.628784,370.699890 225.854858,370.882690 223.981812,371.088501 221.984375,371.318481 220.603394,371.485413 219.310669,371.652161 218.088989,371.820984 216.920898,371.993958 215.789185,372.173401 214.676636,372.361389 213.565796,372.560059 212.439331,372.771606 211.280029,372.998230 210.070557,373.242065 208.793701,373.505310 207.432007,373.790161 205.942627,374.104004 204.547241,374.401001 203.227783,374.687012 201.966187,374.967712 200.744019,375.249146 199.543335,375.536987 198.345703,375.836975 197.133179,376.155090 195.887573,376.497131 194.590454,376.868774 193.223999,377.276062 191.769775,377.724609 190.386475,378.168945 189.096924,378.604126 187.883057,379.033630 186.726318,379.460327 185.608765,379.887878 184.511841,380.319275 183.417358,380.757874 182.307129,381.206848 181.162842,381.669617 179.966431,382.149231 178.699341,382.648987 177.343384,383.172363 175.693604,383.806030 174.150635,384.407043 172.692993,384.981262 171.298706,385.534546 169.946411,386.072693 168.614624,386.601501 167.281494,387.126831 165.925415,387.654663 164.524902,388.190613 163.058350,388.740723 161.503906,389.310608 159.840088,389.906311 158.179810,390.493896 156.623535,391.043640 155.149902,391.560974 153.737427,392.051392 152.364502,392.520325 151.009766,392.973083 149.651733,393.415283 148.268799,393.852234 146.839600,394.289429 145.342651,394.732239 143.756348,395.186157 142.059448,395.656616 140.223389,396.155579 138.500854,396.617004 136.868408,397.044922 135.302490,397.443604 133.779907,397.817017 132.276978,398.169373 130.770508,398.504761 129.236816,398.827148 127.652466,399.140869 125.994263,399.449829 124.238525,399.758301 122.361938,400.070251 120.589722,400.349609 118.926758,400.595520 117.350708,400.811523 115.839478,401.001160 114.370850,401.167664 112.922852,401.315002 111.472900,401.446289 109.999146,401.565186 108.479248,401.675232 106.891113,401.779968 105.212402,401.882751 103.421021,401.987061 101.861450,402.078064 100.399170,402.163940 99.014648,402.242493 97.688599,402.311279 96.401489,402.367737 95.134033,402.409363 93.866699,402.433960 92.579956,402.438904 91.254517,402.421875 89.870728,402.380310 88.409424,402.311829 86.850952,402.214050 85.536377,402.114685 84.305664,402.006714 83.142090,401.888367 82.029907,401.757812 80.952759,401.613464 79.894287,401.453613 78.838379,401.276367 77.768921,401.080139 76.669556,400.863159 75.524048,400.623657 74.316162,400.359924 73.029907,400.070251 71.520264,399.719666 70.108643,399.377380 68.776489,399.038330 67.505005,398.697632 66.275879,398.350098 65.070435,397.990723 63.869873,397.614502 62.655884,397.216370 61.409668,396.791260 60.112793,396.334045 58.746338,395.839905 57.292114,395.303589 55.825928,394.754639 54.454712,394.231567 53.161011,393.725769 51.927246,393.229126 50.735840,392.733093 49.569336,392.229126 48.410156,391.708862 47.240723,391.164001 46.043335,390.586121 44.800781,389.966614 43.495117,389.297302 42.109131,388.569580 40.697510,387.810974 39.383423,387.084412 38.148926,386.380798 36.976196,385.690979 35.847534,385.005798 34.745117,384.315857 33.651001,383.612244 32.547485,382.885620 31.416748,382.126831 30.240967,381.326721 29.002197,380.476135 27.682861,379.565735 26.737915,378.904907 25.860229,378.275391 25.036743,377.670044 24.254883,377.081787 23.501465,376.503845 22.763794,375.928894 22.029053,375.350098 21.284180,374.760254 20.516479,374.152527 19.713013,373.519653 18.861084,372.854797 17.947510,372.150818 17.441406,371.766357 16.964600,371.409180 16.511963,371.073364 16.077637,370.753052 15.656128,370.442322 15.241943,370.135254 14.829590,369.825867 14.413452,369.508545 13.988037,369.177063 13.547852,368.825806 13.087280,368.448608 12.600708,368.039856 12.324585,367.831726 12.023438,367.645752 11.708130,367.475769 11.389771,367.315552 11.079224,367.158875 10.787720,366.999634 10.526245,366.831726 10.305664,366.648743 10.137207,366.444641 10.031616,366.213318 10.000000,365.948425 10.053467,365.643860 10.227051,365.253967 10.467529,364.975647 10.767212,364.793091 11.117920,364.690674 11.511963,364.652588 11.941284,364.663025 12.398193,364.706177 12.874756,364.766357 13.363159,364.827881 13.855347,364.874756 14.343628,364.891357 14.820190,364.861938 15.876465,364.738586 16.867432,364.635437 17.806152,364.549194 18.705688,364.475952 19.579224,364.412170 20.439941,364.354370 21.300781,364.298889 22.175171,364.242004 23.075928,364.180237 24.016479,364.109802 25.009644,364.027161 26.068726,363.928833 27.246460,363.808105 28.348999,363.685791 29.391357,363.562439 30.388672,363.438782 31.355835,363.315430 32.308228,363.192993 33.260620,363.072266 34.228394,362.953796 35.226318,362.838379 36.269775,362.726562 37.373657,362.619019 38.552979,362.516418 40.104370,362.388062 41.558472,362.266235 42.934814,362.152283 44.252808,362.047424 45.532227,361.952820 46.792480,361.869812 48.053223,361.799561 49.333740,361.743408 50.654053,361.702637 52.033325,361.678284 53.491333,361.671692 55.047485,361.684204 57.899536,361.741150 60.751099,361.832153 63.601929,361.956055 66.451660,362.111633 69.300171,362.297791 72.146729,362.513245 74.991211,362.756958 77.833374,363.027649 80.672852,363.324219 83.509155,363.645508 86.342163,363.990356 89.171387,364.357544 90.736816,364.570923 92.202759,364.780029 93.588501,364.988708 94.913330,365.200684 96.196655,365.420044 97.457764,365.650574 98.715942,365.896179 99.990601,366.160583 101.301025,366.447815 102.666626,366.761719 104.106689,367.106140 105.640503,367.484985 107.185425,367.877014 108.630371,368.255188 109.994507,368.625305 111.296997,368.993103 112.556763,369.364014 113.792847,369.743958 115.024414,370.138489 116.270630,370.553345 117.550293,370.994141 118.882690,371.466614 120.286865,371.976379 121.781860,372.529114 123.143311,373.040222 124.416382,373.526917 125.617554,373.996643 126.763428,374.456848 127.870605,374.914978 128.955688,375.378296 130.035400,375.854309 131.125977,376.350464 132.244263,376.873901 133.406738,377.432251 134.630005,378.032776 135.930786,378.682983 137.289551,379.370972 138.559692,380.022705 139.757202,380.648315 140.898315,381.257568 141.999146,381.860779 143.075806,382.467773 144.144165,383.088745 145.220703,383.733643 146.321167,384.412598 147.461914,385.135498 148.658936,385.912598 149.928345,386.753723 151.093872,387.536255 152.182861,388.275879 153.208130,388.984070 154.182983,389.672119 155.120361,390.351685 156.033325,391.034180 156.935059,391.731079 157.838501,392.453857 158.756836,393.214050 159.703125,394.023010 160.690430,394.892151 161.731812,395.833191 162.706909,396.719482 163.626221,397.550049 164.496460,398.339844 165.323853,399.103943 166.115112,399.857239 166.876953,400.614929 167.615845,401.391785 168.338257,402.202942 169.050903,403.063232 169.760376,403.987854 170.473145,404.991638 171.195801,406.089600 172.007690,407.400757 172.738403,408.650696 173.396240,409.855042 173.989136,411.029480 174.524902,412.189758 175.011719,413.351685 175.457153,414.530762 175.869507,415.742859 176.256592,417.003479 176.626343,418.328613 176.986694,419.733704 177.345825,421.234680 178.088989,424.710693 178.665405,427.987183 179.096558,431.105530 179.404297,434.107117 179.609985,437.033630 179.735596,439.926453 179.802490,442.826965 179.832397,445.776794 179.846802,448.817261 179.867676,451.989990 179.916382,455.336365 180.014771,458.897949 180.081299,461.132446 180.119751,463.226318 180.135132,465.207703 180.132202,467.104797 180.115601,468.945740 180.090088,470.758606 180.060425,472.571533 180.031250,474.412720 180.007446,476.310303 179.993530,478.292480 179.994385,480.387207 180.014771,482.622864 180.047729,484.663391 180.087524,486.575012 180.133179,488.383423 180.183472,490.114502 180.237061,491.793945 180.292847,493.447693 180.349854,495.101318 180.406616,496.780762 180.462036,498.511719 180.514771,500.320007 180.563965,502.231445 180.608032,504.271790 180.646973,506.675049 180.669678,508.927002 180.680176,511.057800 180.682373,513.097839 180.680786,515.077209 180.679321,517.026245 180.682129,518.975159 180.693359,520.954163 180.717041,522.993530 180.757324,525.123474 180.818481,527.374268 180.904541,529.776062 180.996216,532.156006 181.077515,534.387024 181.154419,536.498596 181.232910,538.520142 181.319092,540.481079 181.418701,542.410889 181.537842,544.338989 181.682495,546.294800 181.858643,548.307739 182.072388,550.407288 182.329590,552.622864 182.636108,554.983765 182.940552,557.153015 183.244263,559.183472 183.551636,561.101807 183.868042,562.934998 184.198242,564.709839 184.547241,566.453003 184.919800,568.191345 185.321289,569.951782 185.756104,571.760986 186.229492,573.645813 186.746460,575.633057 187.311768,577.749512 187.676025,579.067871 188.032837,580.298462 188.385620,581.458252 188.737793,582.564270 189.092773,583.633362 189.453979,584.682495 189.824585,585.728638 190.208496,586.788635 190.608765,587.879456 191.028687,589.018005 191.471924,590.221252 191.941895,591.506165 192.409424,592.785645 192.850952,593.983093 193.272827,595.114624 193.681519,596.196106 194.082886,597.243530 194.483276,598.272949 194.889038,599.300293 195.306030,600.341675 195.740845,601.412842 196.199341,602.530029 196.688110,603.709106 197.212891,604.966125 197.794678,606.361816 198.336426,607.671387 198.848022,608.911194 199.339844,610.097473 199.821655,611.246460 200.303589,612.374451 200.795532,613.497681 201.307495,614.632568 201.849731,615.795166 202.432007,617.001770 203.064209,618.268860 203.756714,619.612366 204.513306,620.962830 205.292725,622.194580 206.085449,623.333374 206.881836,624.405029 207.672485,625.435181 208.447876,626.449585 209.198242,627.473999 209.913940,628.534119 210.585938,629.655640 211.204224,630.864380 211.759521,632.185974 212.242188,633.646240 212.562500,634.789368 212.826050,635.811951 213.032959,636.738281 213.183960,637.592590 213.279297,638.399170 213.319702,639.182495 213.305420,639.966736 213.237183,640.776306 213.115112,641.635498 212.940063,642.568542 212.712524,643.599854 212.432495,644.753662 211.953979,646.404114 211.392578,647.904602 210.758911,649.282776 210.063354,650.566528 209.316528,651.783691 208.529053,652.961853 207.711060,654.128845 206.873535,655.312439 206.026611,656.540344 205.181152,657.840454 204.347290,659.240417 203.535767,660.768005 202.710205,662.439575 201.947754,664.011230 201.238281,665.503967 200.571045,666.938843 199.936035,668.336914 199.323120,669.719177 198.721802,671.106628 198.121704,672.520386 197.512573,673.981384 196.884277,675.510620 196.226440,677.129333 195.528687,678.858215 194.917725,680.375732 194.346924,681.798584 193.810303,683.146545 193.302368,684.439392 192.817505,685.696899 192.349976,686.938782 191.894409,688.184753 191.445190,689.454773 190.996216,690.768433 190.542480,692.145569 190.078003,693.605835 189.597412,695.169067 189.031982,697.075623 188.523315,698.867798 188.062378,700.569092 187.640381,702.203125 187.248535,703.793335 186.877808,705.363159 186.519409,706.936340 186.164429,708.536194 185.804199,710.186401 185.429565,711.910278 185.031860,713.731567 184.602173,715.673706 184.176270,717.594604 183.782837,719.395630 183.416260,721.100830 183.071411,722.734497 182.743042,724.320923 182.425415,725.884399 182.113525,727.448853 181.801880,729.038696 181.484985,730.678223 181.157715,732.391479 180.814697,734.202759 180.450317,736.136353 180.054077,738.226685 179.678345,740.184448 179.321167,742.036743 178.980347,743.810303 178.653809,745.531860 178.339600,747.228394 178.035522,748.926392 177.739624,750.652832 177.449585,752.434448 177.163574,754.298096 176.879395,756.270630 176.595093,758.378540 176.355591,760.271118 176.146484,762.046021 175.963501,763.727051 175.802246,765.338013 175.659180,766.902222 175.529907,768.443970 175.410278,769.986694 175.296265,771.553955 175.184082,773.169678 175.069214,774.857544 174.947754,776.641235 174.815674,778.544678 174.666626,780.666382 174.528931,782.654541 174.401733,784.535767 174.284546,786.337158 174.176514,788.085327 174.077271,789.807007 173.986084,791.529053 173.902466,793.278320 173.825439,795.081665 173.754761,796.965698 173.689575,798.957275 173.629395,801.083374 173.571777,803.449829 173.526978,805.667114 173.494385,807.765381 173.473389,809.774048 173.463013,811.723267 173.462769,813.642456 173.471680,815.561890 173.489136,817.511108 173.514282,819.520020 173.546631,821.618408 173.585205,823.836060 173.629395,826.202881 173.685791,829.139038 173.741211,831.890015 173.798218,834.492920 173.859375,836.984497 173.927246,839.401855 174.004639,841.781738 174.094238,844.161133 174.198364,846.576782 174.320068,849.065918 174.461670,851.665161 174.625977,854.411499 174.815674,857.341797 174.959839,859.386108 175.108887,861.300171 175.262817,863.110229 175.421997,864.841919 175.586304,866.521362 175.755981,868.174438 175.931030,869.826904 176.111572,871.505005 176.297852,873.234497 176.489746,875.041382 176.687744,876.951538 176.891602,878.990845 177.105591,881.227539 177.297607,883.324097 177.473511,885.308472 177.638794,887.208374 177.799316,889.051880 177.960571,890.866699 178.128418,892.680786 178.308228,894.522095 178.506226,896.418335 178.727661,898.397339 178.978394,900.487183 179.264038,902.715698 179.563110,905.107178 179.816895,907.355835 180.041870,909.488403 180.253906,911.532104 180.469116,913.514038 180.703613,915.461060 180.973511,917.400146 181.294800,919.358398 181.683594,921.362915 182.156128,923.440552 182.728149,925.618286 183.415894,927.923462 184.543823,931.472046 185.629272,934.812012 186.661743,937.863892 187.630493,940.548218 188.525024,942.785767 189.334595,944.496948 190.048828,945.602539 190.656860,946.023071 191.148438,945.679321 191.512573,944.491699 191.738770,942.380981 191.812744,939.423340" />
			</g>
		</g>
	</g>
</svg>
